<?xml version="1.0" standalone="no"?>
<!DOCTYPE svg PUBLIC "-//W3C//DTD SVG 1.1//EN" "http://www.w3.org/Graphics/SVG/1.1/DTD/svg11.dtd" >
<!--
2013-9-30: Created.
-->
<svg>
<metadata>
Created by iconfont
</metadata>
<defs>

<font id="iconfont" horiz-adv-x="1024" >
  <font-face
    font-family="iconfont"
    font-weight="500"
    font-stretch="normal"
    units-per-em="1024"
    ascent="896"
    descent="-128"
  />
    <missing-glyph />
    
    <glyph glyph-name="chongzhi" unicode="&#58880;" d="M512 808.96q88.064 0 165.376-33.28t134.656-91.136 90.624-135.168 33.28-165.376-33.28-164.864-90.624-134.656-134.656-91.136-165.376-33.28-164.864 33.28-134.656 91.136-91.136 134.656-33.28 164.864 33.28 165.376 91.136 135.168 134.656 91.136 164.864 33.28zM760.832 191.488q5.12 14.336 8.192 32.256t5.12 38.4q-14.336 5.12-28.16 10.752t-28.16 11.776q-1.024-12.288-3.072-27.648t-5.12-34.816q-5.12-30.72-45.056-30.72l-30.72 0q-40.96-3.072-37.888 34.816l0 138.24 77.824 2.048 35.84-35.84 46.08 40.96q-39.936 35.84-79.36 70.656t-78.336 67.584l-39.936-30.72q5.12-5.12 12.8-11.776t17.92-16.896q22.528-19.456 31.744-31.744l-241.664-6.144q55.296 46.08 131.072 121.856l257.024 0 0 56.32-216.064 0q-1.024 3.072-2.048 9.216l-4.096 14.336q-5.12 16.384-8.704 26.624t-4.608 16.384l-67.584-7.168q2.048-5.12 5.12-15.36t8.192-24.576q5.12-15.36 6.144-19.456l-237.568 0 0-56.32 184.32 0q-48.128-53.248-98.304-93.184-22.528-22.528-53.248-35.84l29.696-56.32q8.192 2.048 24.064 4.096t42.496 4.096l24.576 0q0-76.8-33.792-110.592-29.696-35.84-126.976-66.56 2.048-4.096 5.12-8.704t8.192-11.776q8.192-11.264 13.824-19.456t8.704-14.336q198.656 61.44 186.368 236.544l74.752 2.048 0-155.648q-2.048-71.68 73.728-68.608l66.56 0q72.704-3.072 84.992 51.2z"  horiz-adv-x="1024" />

    
    <glyph glyph-name="mangluim" unicode="&#58895;" d="M511.999488 750.254727c-248.678712 0-450.273176-201.585181-450.273176-450.254727s201.594464-450.254727 450.273176-450.254727c248.678712 0 450.273176 201.585181 450.273176 450.254727S760.6782 750.254727 511.999488 750.254727zM739.818272 253.49585l-181.308634 0.033769-93.020298-0.024559-181.325008 0.017396-0.00921 92.983741 181.342405 0 92.986528-0.008186 181.360825-0.017396L739.818272 253.49585z"  horiz-adv-x="1024" />

    
    <glyph glyph-name="yonghuicon" unicode="&#59031;" d="M942.276442 68.246593c-0.191366 2.122337-0.462553 4.16281-0.462553 6.121418 0 82.59002-120.475705 178.487114-288.90141 214.980259 34.560513 39.539528 55.32527 93.203752 55.32527 154.213267L708.237749 606.293829c0 127.409808-89.860199 223.524866-209.001458 223.524866-119.167866 0-209.000435-96.115058-209.000435-223.524866L290.235856 443.562561c0-64.249303 22.886158-120.470769 60.795066-160.499437C207.179898 245.808638 80.499634 164.523333 80.499634 73.38973c0-1.933025-0.272211-3.973498-0.490184-6.0416-1.38766-13.632485-4.626557-45.524846 31.921298-64.627926 78.402793-40.820708 227.642768-65.202001 399.225501-65.202001 171.58171 0 320.821685 24.381293 399.252108 65.227584C946.929606 21.822261 943.664102 54.340885 942.276442 68.246593zM345.969441 443.562561 345.969441 606.293829c0 95.216595 65.884176 167.003572 153.267872 167.003572s153.267872-71.786976 153.267872-167.003572L652.505186 443.562561c0-95.217618-65.885199-167.002548-153.267872-167.002548S345.969441 348.344942 345.969441 443.562561zM884.909593 52.978864c-69.830206-36.354999-213.029356-58.942437-373.753343-58.942437-160.72501 0-303.923137 22.586414-373.726736 58.915831-1.305792 0.707105-2.122424 1.251503-2.476502 1.360997-0.054237 1.769296 0.272211 4.978385 0.516791 7.236821 0.408316 4.055362 0.762394 8.02886 0.762394 11.837606 0 50.152237 111.358697 138.783857 274.776136 166.295444 26.561001-12.543687 56.278007-19.646456 88.226935-19.646456 34.316956 0 66.074519 8.190543 94.105047 22.615067 173.269212-23.622 292.738965-116.579135 292.738965-168.283728 0-3.755534 0.354078-7.729032 0.761371-11.809977 0.299841-2.937912 0.734764-7.374968 1.034605-7.618515C887.876279 54.939519 887.141515 54.15055 884.909593 52.978864z"  horiz-adv-x="1024" />

    
    <glyph glyph-name="46" unicode="&#59136;" d="M930.2 278.647 930.2-54.2 94.8-54.2 94.8 278.647 65 278.647 65-54.2 65-84 94.8-84 930.2-84 960-84 960-54.2 960 278.647ZM512.008 134.987 533.077 156.057 722.717 345.697 701.647 366.767 526.66 191.779 526.66 683.953 497.325 683.953 497.325 191.808 322.367 366.767 301.283 345.697 490.938 156.057Z"  horiz-adv-x="1024" />

    
    <glyph glyph-name="57" unicode="&#58956;" d="M65 300c0-246.854 200.146-447 447-447 246.854 0 447 200.146 447 447 0 246.854-200.146 447-447 447C265.146 747 65 546.854 65 300zM94.8 300C94.8 530.048 281.952 717.2 512 717.2S929.199 530.048 929.199 300 742.048-117.2 512-117.2 94.8 69.952 94.8 300zM402.694 536.45 638.082 300 402.694 63.55 385.918 80.399 604.528 300 385.918 519.571Z"  horiz-adv-x="1024" />

    
    <glyph glyph-name="yiliao" unicode="&#58961;" d="M755.870752 653.115204l-47.152926 0 0 34.556027c0 54.628178-44.720527 99.088786-99.670024 99.088786L414.186765 786.760017c-54.948473 0-99.650581-44.722574-99.650581-99.691513l0-33.9533L267.383258 653.115204c-76.848249 0-139.350768-62.522985-139.350768-139.370211l0-395.248949c0-76.826759 62.502519-139.349745 139.350768-139.349745l488.487493 0c76.848249 0 139.351791 62.522985 139.351791 139.349745L895.222543 513.744993C895.222543 590.593242 832.719001 653.115204 755.870752 653.115204zM373.14093 687.068504c0 22.662139 18.423605 41.066301 41.045835 41.066301l194.861036 0c23.023366 0 41.066301-17.759479 41.066301-40.463574l0-34.556027L373.14093 653.115204 373.14093 687.068504zM836.615751 118.497067c0-44.519959-36.222993-80.742952-80.744999-80.742952L267.383258 37.754115c-44.522006 0-80.744999 36.222993-80.744999 80.742952L186.638259 513.744993c0 44.520983 36.222993 80.744999 80.744999 80.744999l488.487493 0c44.522006 0 80.744999-36.224016 80.744999-80.744999L836.615751 118.497067zM637.879454 381.949294l-60.433394 0 0 60.452837c0 17.720593-14.506389 32.225959-32.226982 32.225959l-67.183122 0c-17.71957 0-32.225959-14.504342-32.225959-32.225959l0-60.452837-60.432371 0c-17.740036 0-32.246425-14.505365-32.246425-32.245402l0-67.143213c0-17.740036 14.505365-32.246425 32.246425-32.246425l60.432371 0 0-60.45386c0-17.718547 14.506389-32.224935 32.225959-32.224935l67.183122 0c17.720593 0 32.226982 14.506389 32.226982 32.224935l0 60.45386 60.433394 0c17.740036 0 32.263821 14.506389 32.263821 32.246425l0 67.143213C670.143275 367.443929 655.618467 381.949294 637.879454 381.949294z"  horiz-adv-x="1024" />

    
    <glyph glyph-name="shuaxin" unicode="&#59074;" d="M841.140212 383.986743c0-181.498884-147.641328-329.140212-329.140212-329.140212s-329.140212 147.641328-329.140212 329.140212c0 175.391505 137.999348 318.746696 311.068586 328.211305l0-99.641714c0-3.249345 1.749929-6.286578 4.571392-7.928622 1.428103-0.821022 3.000662-1.214162 4.571392-1.214162s3.143289 0.39314 4.571392 1.214162l237.569748 137.141755c2.821463 1.642044 4.571392 4.679277 4.571392 7.928622s-1.749929 6.286578-4.571392 7.928622l-237.569748 137.141755c-2.856206 1.642044-6.286578 1.642044-9.142784 0-2.821463-1.642044-4.571392-4.679277-4.571392-7.928622l0-101.499527C280.537631 775.804394 109.717518 599.699752 109.717518 383.986743c0-221.820389 180.462093-402.282482 402.282482-402.282482s402.282482 180.462093 402.282482 402.282482L841.140212 383.986743z"  horiz-adv-x="1024" />

    
    <glyph glyph-name="tishi" unicode="&#59078;" d="M924.483984 118.442832l-68.659753 118.934786c-6.391571 11.121292-20.615527 14.862499-31.676443 8.494465-11.102872-6.411013-14.910595-20.593014-8.472975-31.696909l68.653613-118.939903c7.841595-13.615089 9.878998-25.733081 5.573949-33.235962-4.393054-7.590885-16.133446-11.964496-32.217772-11.964496L159.433664 50.034812c-15.994276 0-27.686573 4.353145-32.082696 11.964496-4.352121 7.590885-2.26867 19.874653 5.710049 33.740452L482.143507 700.402183c15.904225 27.465538 36.796044 27.601638 52.568263 0.410346l169.851433-294.200532c6.341429-11.101849 20.526499-14.836917 31.674397-8.494465 11.101849 6.411013 14.910595 20.594037 8.473999 31.695886L574.860165 724.018044c-32.673144 56.642045-100.015901 56.55404-132.87017-0.407276L92.912621 118.958578c-16.768919-29.01994-18.808368-57.484226-5.758144-80.162738 12.918217-22.338774 39.246863-35.164894 72.28328-35.164894l698.246845 0c33.582863 0 59.276035 12.487406 72.375377 35.164894C943.10918 61.367929 941.11271 89.667461 924.483984 118.442832zM510.785847 547.722852c-12.991895 0-23.456225-10.440793-23.456225-23.412223 0-12.944823 10.464329-23.431665 23.456225-23.431665 12.944823 0 23.413246 10.486842 23.413246 23.431665C534.199093 537.282059 523.731694 547.722852 510.785847 547.722852zM487.329623 434.65468l0-289.004183c0-11.189853 10.389628-20.261463 23.202445-20.261463 12.836353 0 23.201421 9.071609 23.201421 20.261463L533.733489 434.65468c0.023536 11.166317-10.368138 20.25737-23.201421 20.25737C497.742786 454.91205 487.329623 445.819974 487.329623 434.65468z"  horiz-adv-x="1024" />

    
    <glyph glyph-name="input" unicode="&#59251;" d="M896 767.573333l-768 0c-47.146667 0-85.333333-38.186667-85.333333-85.333333l0-170.24 85.333333 0 0 171.093333 768 0 0-598.613333-768 0 0 171.52-85.333333 0 0-171.093333c0-47.146667 38.186667-84.48 85.333333-84.48l768 0c47.146667 0 85.333333 37.546667 85.333333 84.48l0 597.333333c0 47.146667-38.186667 85.333333-85.333333 85.333333zM469.333333 213.333333l170.666667 170.666667-170.666667 170.666667 0-128-426.666667 0 0-85.333333 426.666667 0 0-128z"  horiz-adv-x="1024" />

    
    <glyph glyph-name="msnui-state-leave" unicode="&#59200;" d="M870.4 798.666h-716.8c-49.472 0-89.6-40.96-89.6-91.392v-457.216c0-50.432 40.128-91.392 89.6-91.392h716.8c49.472 0 89.6 40.96 89.6 91.456v457.152c0 50.432-40.128 91.392-89.6 91.392zM672 414.666h-192c-17.664 0-32 14.336-32 32v192c0 17.664 14.336 32 32 32s32-14.336 32-32v-160h160c17.664 0 32-14.336 32-32s-14.336-32-32-32zM585.856 94.666h-147.648c0 0-29.632-85.312-118.208-85.312v-42.688h384v42.688c-88.64 0-118.144 85.312-118.144 85.312z"  horiz-adv-x="1024" />

    
    <glyph glyph-name="msnui-task" unicode="&#59225;" d="M337.549 302.092l97.85-97.85c7.643-7.643 17.66-11.464 27.677-11.464 10.013 0 20.030 3.821 27.669 11.464l195.7 195.695c15.286 15.286 15.286 40.066 0 55.351-15.286 15.286-40.060 15.286-55.347 0l-168.023-168.022-70.176 70.173c-15.286 15.281-40.064 15.281-55.351 0-15.281-15.283-15.281-40.066 0-55.348zM864.594 768.251h-171.178c6.261-9 9.941-19.929 9.941-31.722s-3.681-22.723-9.941-31.722h139.455v-704.375l-641.849-0v704.375h138.537c-6.261 9-9.941 19.929-9.941 31.722s3.681 22.723 9.941 31.722h-170.26c-17.52 0-31.722-14.202-31.722-31.722v-767.82c0-17.52 14.202-31.722 31.722-31.722h705.294c17.52 0 31.722 14.202 31.722 31.722v767.82c0 17.52-14.202 31.722-31.722 31.722zM444.802 639.997h132.007c33.909 0 61.398 27.489 61.398 61.398v5.457c0 33.909-27.489 61.398-61.398 61.398h-2.593c2.106 5.276 3.276 11.027 3.276 17.055 0 25.432-20.617 46.049-46.049 46.049h-38.886c-25.432 0-46.049-20.617-46.049-46.049 0-6.028 1.171-11.779 3.277-17.055h-4.982c-33.909 0-61.398-27.489-61.398-61.398v-5.457c0-33.909 27.489-61.398 61.398-61.398z"  horiz-adv-x="1024" />

    
    <glyph glyph-name="msnui-task-add" unicode="&#59231;" d="M714.439 334.847c-36.599 0-70.94-9.844-100.523-27.013-43.47-25.231-76.655-66.291-91.615-115.232h0.001c-5.668-18.545-8.728-38.219-8.728-58.597 0-110.755 90.11-200.858 200.866-200.858 110.74 0 200.843 90.102 200.843 200.858-0.002 110.748-90.104 200.842-200.844 200.842zM714.439-35.874c-93.684 0-169.887 76.211-169.887 169.878 0 20.584 3.684 40.321 10.421 58.597h-0.001c21.382 57.989 73.545 101.201 136.578 109.728-2.442 3.332-6.372 5.505-10.834 5.505 4.463 0 8.394-2.174 10.835-5.505 7.489 1.013 15.128 1.548 22.888 1.548 93.659 0 169.863-76.213 169.863-169.872 0-93.669-76.204-169.879-169.863-169.879zM814.708 157.4h-74.26v77.706c0 6.778-5.498 12.277-12.277 12.277h-24.506c-3.84 0-7.268-1.768-9.518-4.53v-36.833c0-3.060-1.036-5.872-2.759-8.13v-40.489h-74.26c-6.776 0-12.277-5.498-12.277-12.277v-22.971c0-6.777 5.499-12.277 12.277-12.277h74.26v-78.473c0-6.778 5.499-12.277 12.278-12.277h24.506c6.777 0 12.277 5.498 12.277 12.277v78.474h74.259c6.778 0 12.278 5.498 12.278 12.277v22.971c0 6.776-5.498 12.276-12.278 12.276zM694.099 242.914c-1.723-2.113-2.758-4.809-2.758-7.747v-37.216c1.725 2.257 2.758 5.070 2.758 8.13v36.833zM576.573 445.875c-12.281 8.901-30.819 6.441-40.17-5.204l-138.142-171.267-45.405 50.86c-9.905 11.059-28.709 12.614-40.37 3.245-6.073-4.851-9.771-11.746-10.423-19.339-0.635-7.562 1.84-14.89 6.96-20.611l68.493-76.725c5.521-6.122 13.502-9.636 21.883-9.636 0.101 0 0.635 0 0.72 0 8.683 0.201 16.763 4.115 22.133 10.741l159.808 198.186c4.819 5.989 6.891 13.418 5.887 20.913-1.001 7.595-5.049 14.287-11.373 18.838zM184.182 37.792v650.036h44.435c1.489 22.451 10.205 42.93 23.924 59.091h-97.922c-16.295 0-29.529-13.251-29.529-29.562v-709.076c0-16.362 13.233-29.579 29.529-29.579h358.952c-10.079 18.455-17.984 38.266-23.369 59.091l-306.020 0zM691.442 687.828v-329.898c16.269 3.191 33.076 4.881 50.281 4.881 2.955 0 5.895-0.068 8.826-0.165l0 354.71c0 16.312-13.232 29.562-29.561 29.562h-97.921c13.717-16.161 22.45-36.639 23.924-59.091h44.451zM330.237 611.070h215.134c36.656 0 66.502 29.813 66.502 66.452v3.58c0 2.242-0.116 4.518-0.351 6.726-3.094 30.583-26.986 55.009-57.267 59.091-2.911 0.402-5.856 0.669-8.884 0.669h-28.809v5.337c0 36.656-29.83 66.503-66.503 66.503h-24.509c-36.656 0-66.47-29.847-66.47-66.503v-5.337h-28.843c-3.011 0-5.956-0.268-8.867-0.669-30.283-4.082-54.207-28.508-57.285-59.091-0.217-2.208-0.335-4.484-0.335-6.726v-3.58c0.001-36.639 29.831-66.452 66.487-66.452z"  horiz-adv-x="1024" />

    
    <glyph glyph-name="huanqiushangou" unicode="&#58881;" d="M512 801.4C281.5 801.4 94.6 614.5 94.6 384c0-230.5 186.9-417.4 417.4-417.4 230.5 0 417.4 186.9 417.4 417.4C929.4 614.5 742.5 801.4 512 801.4L512 801.4zM685.1 357.3c-5.1 4.5 35.7-1.4-69.8-67.9-21.9-12.9 14.5-141.6-43.9-145.7-20.7 13.5-61.9 96.1-63.1 117.8 0 7.8 5.9 19.6 11.6 31 8.4 16.7 17.8 35.7 17.8 57.3 0 120.2-157.4 83.1-145.7 86.9-55-17.5-58.9 84.8-58.9 88.3 0 1.8 19.6 26 110.5 27.8 13.7 0.3 10.6-60.2 151.5-30 14.3 3.1 27.1 10.8 29.1 25.3 1.1 7.4 1.6 12.9 2.5 19.6 4.9-6.7 11.7-11.8 20.4-13.4 9.9-11.6 30.6 4.3 40.9-36.4 3-12.2 1.3-14.7 33.9-28.7-3.8-2.4-15.1-4.5-18.9-8.5-32.7-34-49.1-51.1-49.1-72C654.1 384.3 672 368.7 685.1 357.3L685.1 357.3zM631.3 613.1c2 36.8-3.4 61.7-28.9 80.1-14.2 10.3-32.4 11.1-49.9 2.4-21.3-10.6-43.7-15.9-54.5-5.1-62.6 62.5 39.4 25.5 93.6 36.8 3.2 0.7 6.2 1.9 8.9 3.5 43.1-11 83-29.7 118.2-54.7C637.5 686.2 648.6 638.8 631.3 613.1L631.3 613.1zM512 26.2c-197.6 0-357.8 160.2-357.8 357.8 0 165.4 112.3 304.7 264.8 345.6-0.1-1.4-0.3-2.7-0.4-4.2-3.1-39.6 21.7-70.2 50.8-86.4 28-15.6 63.9-15.7 100-0.5 5.1-21 3.1-9.2-0.5-59.2-33.8-6.6-51.2-31.3-83.9 17.3-4.1 6.1-14.8 15.2-39.9 13.9-188.5-10.1-170.9-76.1-170.9-85.6 0-50.9 24.6-147.2 117.8-147.2-9.9 0 86 27.9 86.9-28-0.9-7.7-5.9-19.6-11.6-31-8.4-16.7-17.8-35.7-17.8-57.3 0-29.9 60.4-176.7 117.8-176.7 95.1 7.5 86.9 56.9 95.4 156.9 19.2 9.3 40.7 27.3 71.2 57.8 15.7 15.7 23.7 32.2 22.7 49-3.3 53.2-62.7 44-10.9 91.3 21.8 19.9 42.2 32.8 35.5 63.1-4.7 21.2 1.3 24.4-42.3 39.9-10.8 37.9-37.1 28.5-50.6 46.7 1.8 12.4-13.8 38.4 42.9 24.6 12.2-0.4 29.4 1.3 47.4 8.7 56.8-63.3 91.4-147 91.4-238.8C869.8 186.4 709.6 26.2 512 26.2L512 26.2zM512 26.2"  horiz-adv-x="1024" />

    
    <glyph glyph-name="shouji1" unicode="&#59079;" d="M512 11.946667c-40.96 0-75.093333 34.133333-75.093333 75.093333s34.133333 75.093333 75.093333 75.093333 75.093333-34.133333 75.093333-75.093333S552.96 11.946667 512 11.946667zM512 124.586667c-20.48 0-37.546667-17.066667-37.546667-37.546667s17.066667-37.546667 37.546667-37.546667c20.48 0 37.546667 17.066667 37.546667 37.546667S532.48 124.586667 512 124.586667zM679.253333-97.28c-3.413333 0-6.826667 0-10.24 3.413333-40.96 23.893333-109.226667 23.893333-109.226667 23.893333l0 0L276.48-69.973333c-54.613333 0-98.986667 44.373333-98.986667 98.986667L177.493333 756.053333c0 54.613333 44.373333 98.986667 98.986667 98.986667l471.04 0c54.613333 0 98.986667-44.373333 98.986667-98.986667l0-727.04c0-54.613333-44.373333-98.986667-98.986667-98.986667-10.24 0-17.066667 6.826667-17.066667 17.066667s6.826667 17.066667 17.066667 17.066667c34.133333 0 61.44 27.306667 61.44 61.44L808.96 756.053333c0 34.133333-27.306667 61.44-61.44 61.44L276.48 817.493333c-34.133333 0-61.44-27.306667-61.44-61.44l0-727.04c0-34.133333 27.306667-61.44 61.44-61.44l283.306667 0c3.413333 0 78.506667 0 126.293333-30.72 10.24-6.826667 10.24-17.066667 6.826667-23.893333C692.906667-93.866667 686.08-97.28 679.253333-97.28zM590.506667 745.813333l-153.6 0c-10.24 0-17.066667 6.826667-17.066667 17.066667s6.826667 17.066667 17.066667 17.066667l153.6 0c10.24 0 17.066667-6.826667 17.066667-17.066667C607.573333 756.053333 600.746667 745.813333 590.506667 745.813333z"  horiz-adv-x="1024" />

    
    <glyph glyph-name="tubiao15" unicode="&#58959;" d="M840.655667 703.881419c30.637211 0 55.523164-24.938145 55.523164-55.562052L896.178831 257.06915c0-30.561482-24.88493-55.373755-55.523164-55.373755l-136.680355 0c-35.389673 0-64.0252-28.626317-64.0252-63.938215 0 0 0-5.937507 0-15.249017-39.891412 32.374868-79.782825 64.811137-79.782825 64.811137-11.379711 9.313556-25.63505 14.376095-40.391833 14.376095l-336.448517 0c-30.574786 0-55.459716 24.812272-55.459716 55.373755L127.86722 648.319367c0 30.62493 24.88493 55.562052 55.459716 55.562052L840.655667 703.881419M840.655667 767.882058l-657.327708 0c-65.964458 0-119.48594-53.562416-119.48594-119.561668L63.84202 257.06915c0-65.874403 53.521481-119.374394 119.48594-119.374394l336.448517 0c0 0 139.181436-113.249613 158.064387-128.000256 8.87863-6.874901 15.256181-9.81193 19.508222-9.81193 4.752462 0 6.877971 3.750597 6.753122 9.81193-0.188297 11.375617-0.124849 128.000256-0.124849 128.000256l136.680355 0c66.089308 0 119.548365 53.499991 119.548365 119.374394L960.206078 648.319367C960.204031 714.319643 906.744975 767.882058 840.655667 767.882058L840.655667 767.882058zM752.120084 447.88193c0-26.56221-21.571306-47.999456-48.019923-47.999456-26.510019 0-48.019923 21.437247-48.019923 47.999456 0 26.563233 21.509905 47.999456 48.019923 47.999456C730.548778 495.881387 752.120084 474.44414 752.120084 447.88193zM560.042437 447.88193c0-26.56221-21.571306-47.999456-48.0189-47.999456-26.542766 0-48.019923 21.437247-48.019923 47.999456 0 26.563233 21.477157 47.999456 48.019923 47.999456C538.470108 495.881387 560.042437 474.44414 560.042437 447.88193zM367.96479 447.88193c0-26.56221-21.571306-47.999456-48.019923-47.999456-26.541743 0-48.0189 21.437247-48.0189 47.999456 0 26.563233 21.477157 47.999456 48.0189 47.999456C346.393484 495.881387 367.96479 474.44414 367.96479 447.88193z"  horiz-adv-x="1025" />

    
    <glyph glyph-name="chenggong" unicode="&#59021;" d="M512 896C230.4 896 0 665.6 0 384c0-281.6 230.4-512 512-512 281.6 0 512 230.4 512 512C1024 665.6 793.6 896 512 896zM512-64c-249.6 0-448 204.8-448 448 0 249.6 204.8 448 448 448 249.6 0 448-198.4 448-448C960 134.4 761.6-64 512-64zM691.2 556.8 454.4 320 332.8 441.6c-19.2 19.2-51.2 19.2-76.8 0C243.2 416 243.2 384 262.4 364.8l153.6-153.6c19.2-19.2 51.2-19.2 70.4 0l51.2 51.2 224 224c19.2 19.2 25.6 51.2 0 70.4C742.4 576 710.4 576 691.2 556.8z"  horiz-adv-x="1024" />

    
    <glyph glyph-name="daojishimeidian" unicode="&#58979;" d="M471.104591 697.892149c122.233925 0 244.468874 0.007163 366.7028-0.00614 26.044166-0.00307 37.182854-11.084453 37.19104-37.213553 0.036839-124.348076 0.095167-248.696152-0.154519-373.043205-0.017396-8.468882 2.659573-14.107299 8.644891-20.082384 69.087495-68.961628 92.926436-151.555741 64.260559-244.725724-28.366048-92.193749-93.134167-149.086503-188.55133-165.710113-91.479481-15.936971-167.639045 15.072277-227.568972 85.648682-5.573949 6.564509-10.905374 9.283434-19.498076 9.267061-135.971811-0.258896-271.944646-0.187265-407.91748-0.176009-27.940352 0.002047-38.624692 10.844999-38.624692 39.126112-0.00307 222.62845-0.00307 445.2569 0 667.88535 0 28.083615 10.872628 39.023782 38.811957 39.025828C226.635717 697.896242 348.870666 697.892149 471.104591 697.892149zM81.84096 552.002454c0-5.013177 0-8.841366 0-12.668531 0-182.814676-0.001023-365.629351 0.002047-548.44505 0-19.285229 3.641947-23.060205 22.549575-23.063275 131.739417-0.019443 263.478833-0.010233 395.219273-0.010233 3.728928 0 7.456832 0 9.627265 0-11.044544 32.492018-21.809725 64.160275-33.301454 97.964172-19.992333 0-42.664705 0-65.535599 0 0 37.94624 0 74.414827 0 112.074541 4.379751 0 8.15268 0 11.924587 0 21.134343 0.001023 42.270732-0.12996 63.402005 0.150426 3.051499 0.040932 7.66354 1.187035 8.832156 3.316535 4.498454 8.194636 7.891737 16.996093 12.431124 27.228131-33.116235 0-64.634066 0-96.250134 0 0 38.343283 0 75.394131 0 111.998817 38.785352 0 76.598562 0 115.597785 0 0-27.393907 0-53.859675 0-80.069617 97.884354 104.59315 208.199833 120.956839 332.11198 50.65468 0 86.925768 0 173.708274 0 260.868379C599.524402 552.002454 341.437369 552.002454 81.84096 552.002454zM721.18323-89.111159c100.335173 0.12382 181.458795 81.291444 181.320649 181.418886-0.138146 99.727329-82.163301 181.231621-182.116781 180.959422-99.618858-0.272199-180.337251-81.346703-180.434465-181.232644C539.853371-8.463374 620.663862-89.234979 721.18323-89.111159zM410.508491 464.531264c38.271652 0 75.809593 0 114.227578 0 0-37.169551 0-74.213235 0-111.966071-37.917588 0-75.705216 0-114.227578 0C410.508491 389.700975 410.508491 426.493949 410.508491 464.531264zM628.375497 352.460816c0 37.416168 0 74.238818 0 111.829971 38.026058 0 75.849502 0 114.466008 0 0-37.128619 0-74.187653 0-111.829971C704.59953 352.460816 666.777109 352.460816 628.375497 352.460816zM194.933691 352.648081c0 37.204343 0 74.03518 0 112.408139 6.373151 0 12.57848 0 18.783809 0 27.833929-0.001023 55.667857-0.036839 83.501786 0.028653 5.176906 0.01228 9.873882 0.384763 9.82067-7.194866-0.23843-33.819247-0.197498-67.639516-0.305969-101.458763-0.00307-1.00898-0.537236-2.01489-1.038656-3.78214C269.073248 352.648081 232.31916 352.648081 194.933691 352.648081zM194.675818 208.99431c0 37.618782 0 74.195839 0 111.635543 36.922934 0 73.658603 0 111.469767 0 0.282433-3.257184 0.819668-6.617721 0.827855-9.980305 0.066515-30.287817-0.204661-60.579727 0.198521-90.862427 0.11154-8.426927-1.985214-11.756765-11.119245-11.600199-30.631648 0.524956-61.277622 0.186242-91.917456 0.222057C201.37438 208.413072 198.615547 208.74053 194.675818 208.99431zM306.915112 177.105019c0-35.879162 0.11461-70.692039-0.277316-105.498776-0.023536-2.140757-4.018523-6.057973-6.200212-6.081509-34.803667-0.385786-69.612451-0.272199-105.271602-0.272199 0 37.622876 0 74.359568 0 111.853507C231.889371 177.105019 268.609691 177.105019 306.915112 177.105019zM731.148186 141.041662c0.010233-24.309662 0.26913-48.623417-0.138146-72.925916-0.132006-7.896854 2.620687-10.451026 10.358929-10.346649 24.656563 0.334621 49.322335 0.206708 73.982992 0.073678 17.324574-0.094144 21.090341-4.689812 20.989033-24.827455-0.082888-16.393365-5.094018-21.50478-21.37175-21.522176-37.344536-0.039909-74.690096-0.040932-112.034633 0-15.308661 0.017396-20.266579 4.186346-21.319561 19.658735-0.641613 9.43079 0.542352 18.971074 0.556679 28.463262 0.073678 50.380434 0.036839 100.760868 0.035816 151.140279 0 8.513908-1.010003 19.383466 9.081843 21.272489 10.775414 2.016937 22.641673 0.629333 33.494858-1.734504 3.080152-0.671289 5.933129-9.898441 6.072299-15.275915C731.497133 190.375254 731.137952 165.703341 731.148186 141.041662z"  horiz-adv-x="1024" />

    
    <glyph glyph-name="paper-airplane" unicode="&#58963;" d="M974.592 757.056c-8.832 7.168-19.648 10.944-30.592 10.944-7.296 0-14.656-1.664-21.44-5.056l-864-432c-15.168-7.616-25.216-22.656-26.432-39.552s6.656-33.216 20.544-42.88l219.456-151.872c0-0.256-0.128-0.448-0.128-0.64v-240c0-20.8 13.44-39.232 33.28-45.696 4.864-1.536 9.856-2.304 14.72-2.304 15.104 0 29.76 7.104 38.912 19.904l100.416 139.136 217.344-150.528c8.128-5.632 17.728-8.512 27.328-8.512 5.504 0 11.072 0.96 16.384 2.88 14.592 5.248 25.728 17.344 29.888 32.256l240 864c5.12 18.304-1.088 37.888-15.68 49.92zM295.168 139.008l-215.168 148.992 728.256 364.096-513.088-513.088zM320-144v240l624 624-624-864zM704-144l-216.512 149.888 419.52 580.864-203.008-730.752z"  horiz-adv-x="1024" />

    
    <glyph glyph-name="yidiandiantubiao07" unicode="&#59080;" d="M106.224066 718.522822 106.224066-122.771784c0-31.86722 25.493776-57.360996 57.360996-57.360996 0 0 524.746888 0 524.746888 0 16.995851 0 29.742739 12.746888 29.742739 29.742739 0 16.995851-12.746888 29.742739-29.742739 29.742739L193.327801-120.647303c-16.995851 0-29.742739 12.746888-29.742739 29.742739l0 0 0 67.983402L163.585062 625.045643l0 63.73444c0 16.995851 12.746888 29.742739 29.742739 29.742739l76.481328 0 384.53112 0 2.124481 0 0-318.672199c0-16.995851 12.746888-29.742739 29.742739-29.742739 16.995851 0 29.742739 12.746888 29.742739 29.742739L715.950207 718.522822l0-2.124481 116.846473 0c16.995851 0 29.742739-12.746888 29.742739-29.742739 0 0 0-868.912863 0-868.912863 31.86722 0 57.360996 25.493776 57.360996 57.360996l0 841.294606c0 31.86722-25.493776 57.360996-57.360996 57.360996 0 0-694.705394 0-694.705394 0C131.717842 775.883817 106.224066 750.390041 106.224066 718.522822z"  horiz-adv-x="1024" />

    
    <glyph glyph-name="declare" unicode="&#58907;" d="M791.273-70.182l-581.818 0c-51.386 0-93.091 41.658-93.091 93.091l0 535.18-0.326 0.326 280.157 279.412 0.326-0.372 394.752 0c51.433 0 93.091-41.705 93.091-93.091l0-721.455c0-51.433-41.658-93.091-93.091-93.091zM395.636 771.546l-213.923-213.364 167.377 0c25.693 0 46.545 20.852 46.545 46.545l0 166.819zM837.818 744.364c0 25.693-20.852 46.545-46.545 46.545l-349.091 0 0-186.182c0-51.386-41.658-93.091-93.091-93.091l-186.182 0 0-488.727c0-25.693 20.852-46.545 46.545-46.545l581.818 0c25.693 0 46.545 20.852 46.545 46.545l0 721.455zM721.455 116l-442.182 0c-12.847 0-23.273 10.426-23.273 23.273s10.426 23.273 23.273 23.273l442.182 0c12.847 0 23.273-10.426 23.273-23.273 0-12.847-10.426-23.273-23.273-23.273zM721.455 278.909l-442.182 0c-12.847 0-23.273 10.426-23.273 23.273 0 12.847 10.426 23.273 23.273 23.273l442.182 0c12.847 0 23.273-10.426 23.273-23.273 0-12.847-10.426-23.273-23.273-23.273zM721.455 441.818l-442.182 0c-12.847 0-23.273 10.426-23.273 23.273s10.426 23.273 23.273 23.273l442.182 0c12.847 0 23.273-10.426 23.273-23.273 0-12.847-10.426-23.273-23.273-23.273zM721.455 604.727l-209.455 0c-12.847 0-23.273 10.426-23.273 23.273s10.426 23.273 23.273 23.273l209.455 0c12.847 0 23.273-10.426 23.273-23.273s-10.426-23.273-23.273-23.273z"  horiz-adv-x="1024" />

    
    <glyph glyph-name="quxiao" unicode="&#59155;" d="M512-212c-282.304 0-512 229.696-512 512s229.696 512 512 512 512-229.696 512-512S794.304-212 512-212zM512 763.232C256.576 763.232 48.768 555.424 48.768 300S256.576-163.168 512-163.168 975.168 44.576 975.168 300 767.424 763.232 512 763.232zM764.8 499.744 711.68 552.864 512 353.12 312.256 552.864 259.136 499.744 458.88 300 259.136 100.32 312.256 47.2 512 246.88 711.68 47.2 764.8 100.32 565.12 300Z"  horiz-adv-x="1024" />

    
    <glyph glyph-name="cha" unicode="&#58906;" d="M886.528-12.032c-28.096-28.096-73.856-28.096-102.016 0L138.304 634.176c-28.096 28.16-28.16 73.856 0 102.016 28.032 28.16 73.792 28.16 102.08 0l646.144-646.144C914.624 61.76 914.752 16.128 886.528-12.032L886.528-12.032zM885.76 634.496 239.616-11.648c-28.224-28.224-73.92-28.224-102.08 0-28.16 28.096-28.16 73.728 0.064 102.016L783.744 736.448c28.224 28.16 73.984 28.16 102.016 0.064C913.984 708.352 913.856 662.656 885.76 634.496L885.76 634.496z"  horiz-adv-x="1024" />

    
    <glyph glyph-name="iconfontzhishijiantou" unicode="&#58989;" d="M479.017851 604.064348l-181.853383-576.194172 181.853383 59.967544 189.078388-59.967544L479.017851 604.064348zM336.685247 66.885204l143.055105 466.374092 148.835109-469.264094-148.835109 53.103789L336.685247 66.885204z"  horiz-adv-x="1024" />

    
    <glyph glyph-name="17" unicode="&#59072;" d="M887.466667-25.6 147.911111-25.6l0 68.266667 739.555556 0L887.466667-25.6zM517.688889 793.6 101.364622 497.777778l74.353778 0 341.936356 239.968711L858.908444 497.777778 932.977778 497.777778 517.688889 793.6zM557.511111 163.043556 557.511111 445.667556c13.084444 5.688889 23.665778 16.270222 29.354667 29.354667L448.512 475.022222c5.688889-13.084444 16.270222-23.665778 29.354667-29.354667l0-282.624c-13.084444-5.688889-23.665778-16.270222-29.354667-29.354667l138.353778 0C581.176889 146.773333 570.595556 157.354667 557.511111 163.043556zM352.711111 163.043556 352.711111 445.667556c13.084444 5.688889 23.665778 16.270222 29.354667 29.354667L243.712 475.022222c5.688889-13.084444 16.270222-23.665778 29.354667-29.354667l0-282.624c-13.084444-5.688889-23.665778-16.270222-29.354667-29.354667l138.353778 0C376.376889 146.773333 365.795556 157.354667 352.711111 163.043556zM762.311111 163.043556 762.311111 445.667556c13.084444 5.688889 23.665778 16.270222 29.354667 29.354667L653.312 475.022222c5.688889-13.084444 16.270222-23.665778 29.354667-29.354667l0-282.624c-13.084444-5.688889-23.665778-16.270222-29.354667-29.354667l138.353778 0C785.976889 146.773333 775.395556 157.354667 762.311111 163.043556zM802.133333 497.777778l-284.444444 204.8-284.444444-204.8L802.133333 497.777778zM830.577778 110.933333 204.8 110.933333l0-45.511111 625.777778 0L830.577778 110.933333z"  horiz-adv-x="1024" />

    
    <glyph glyph-name="doubleangleright" unicode="&#59131;" d="M465.873 190.176c0 3.727 1.864 7.92 4.659 10.715L653.642 384 470.532 567.109c-2.795 2.795-4.659 6.989-4.659 10.716s1.864 7.921 4.659 10.716l23.297 23.296c2.795 2.795 6.988 4.659 10.716 4.659s7.921-1.864 10.717-4.659l217.122-217.122c2.795-2.795 4.659-6.988 4.659-10.716 0-3.727-1.864-7.92-4.659-10.715L515.262 156.162c-2.796-2.795-6.989-4.66-10.717-4.66s-7.921 1.865-10.716 4.66l-23.297 23.297C467.737 182.254 465.873 186.447 465.873 190.176zM286.957 190.176c0 3.727 1.864 7.92 4.66 10.715L474.726 384 291.617 567.109c-2.796 2.795-4.66 6.989-4.66 10.716s1.864 7.921 4.66 10.716l23.296 23.296c2.795 2.795 6.988 4.659 10.716 4.659s7.921-1.864 10.717-4.659l217.122-217.122c2.795-2.795 4.659-6.988 4.659-10.716 0-3.727-1.864-7.92-4.659-10.715L336.346 156.162c-2.796-2.795-6.989-4.66-10.717-4.66s-7.921 1.865-10.716 4.66l-23.296 23.297C288.821 182.254 286.957 186.447 286.957 190.176z"  horiz-adv-x="1024" />

    
    <glyph glyph-name="doubleangleleft" unicode="&#59132;" d="M553.468 179.459l-23.297-23.297c-2.795-2.795-6.988-4.66-10.716-4.66s-7.921 1.865-10.717 4.66L291.616 373.285c-2.795 2.795-4.659 6.988-4.659 10.715 0 3.728 1.864 7.921 4.659 10.716l217.122 217.122c2.796 2.795 6.989 4.659 10.717 4.659s7.921-1.864 10.716-4.659l23.297-23.296c2.795-2.795 4.659-6.989 4.659-10.716s-1.864-7.921-4.659-10.716L370.358 384l183.109-183.11c2.795-2.795 4.659-6.988 4.659-10.715C558.127 186.447 556.263 182.254 553.468 179.459zM732.383 179.459l-23.296-23.297c-2.795-2.795-6.988-4.66-10.716-4.66s-7.921 1.865-10.717 4.66L470.532 373.285c-2.795 2.795-4.659 6.988-4.659 10.715 0 3.728 1.864 7.921 4.659 10.716l217.122 217.122c2.796 2.795 6.989 4.659 10.717 4.659s7.921-1.864 10.716-4.659l23.296-23.296c2.796-2.795 4.66-6.989 4.66-10.716s-1.864-7.921-4.66-10.716L549.274 384l183.108-183.11c2.796-2.795 4.66-6.988 4.66-10.715C737.043 186.447 735.179 182.254 732.383 179.459z"  horiz-adv-x="1024" />

    
    <glyph glyph-name="jichushuju" unicode="&#58900;" d="M924 832 100 832C44.8 832 0 787.2 0 732l0-568c0-55.2 44.8-100 100-100l380 0 0-64L224 0c-17.7 0-32-14.3-32-32s14.3-32 32-32l576 0c17.7 0 32 14.3 32 32s-14.3 32-32 32L544 0l0 64 380 0c55.2 0 100 44.8 100 100L1024 732C1024 787.2 979.2 832 924 832zM960 164c0-19.9-16.1-36-36-36L100 128c-19.9 0-36 16.1-36 36L64 732c0 19.9 16.1 36 36 36l824 0c19.9 0 36-16.1 36-36L960 164zM857.7 221.7m-38 0a38 38 0 1 0 76 0 38 38 0 1 0-76 0Z"  horiz-adv-x="1024" />

    
    <glyph glyph-name="kuozhanshuxing" unicode="&#59081;" d="M832 256l-128 0 0 256 128 0c105.9 0 192 86.1 192 192s-86.1 192-192 192-192-86.1-192-192l0-128L384 576l0 128c0 105.9-86.1 192-192 192s-192-86.1-192-192 86.1-192 192-192l128 0 0-256L192 256c-105.9 0-192-86.1-192-192 0-105.9 86.1-192 192-192s192 86.1 192 192l0 128 256 0 0-128c0-105.9 86.1-192 192-192s192 86.1 192 192S937.9 256 832 256zM704 704c0 70.6 57.4 128 128 128s128-57.4 128-128-57.4-128-128-128l-128 0L704 704zM192 576c-70.6 0-128 57.4-128 128s57.4 128 128 128 128-57.4 128-128l0-128L192 576zM320 64c0-70.6-57.4-128-128-128s-128 57.4-128 128 57.4 128 128 128l128 0L320 64zM384 512l256 0 0-256L384 256 384 512zM832-64c-70.6 0-128 57.4-128 128l0 128 128 0c70.6 0 128-57.4 128-128S902.6-64 832-64z"  horiz-adv-x="1024" />

    
    <glyph glyph-name="baocun" unicode="&#59141;" d="M899.440673-127.443932 124.559327-127.443932C63.137677-127.443932 13.345642-77.651897 13.345642-16.230247L13.345642 784.230247C13.345642 845.651897 63.137677 895.443932 124.559327 895.443932L899.440673 895.443932C960.862323 895.443932 1010.654358 845.651897 1010.654358 784.230247L1010.654358-16.230247C1010.654358-77.651897 960.862323-127.443932 899.440673-127.443932ZM787.392886 835.388542 237.997285 835.388542 237.997285 484.787402 787.392886 484.787402 787.392886 835.388542ZM952.267173 793.68341C952.267173 816.716598 933.59523 835.388542 910.562042 835.388542L825.761607 835.388542 825.761607 484.787402 825.761607 446.41868 825.761607 445.028509 787.392886 445.028509 787.392886 446.41868 237.997285 446.41868 237.997285 445.028509 199.628564 445.028509 199.628564 835.388542 113.715992 835.388542C90.682804 835.388542 72.010861 816.716598 72.010861 793.68341L72.010861-25.68341C72.010861-48.716598 90.682804-67.388542 113.715992-67.388542L910.562042-67.388542C933.59523-67.388542 952.267173-48.716598 952.267173-25.68341L952.267173 793.68341ZM639.478686 734.462123 677.013304 734.462123 677.013304 734.740157 715.382026 734.740157 715.382026 536.779799 712.323649 536.779799 677.013304 536.779799 639.478686 536.779799 605.558512 536.779799 601.109965 536.779799 601.109965 734.740157 639.478686 734.740157 639.478686 734.462123ZM639.478686 575.14852 677.013304 575.14852 677.013304 696.093402 639.478686 696.093402 639.478686 575.14852Z"  horiz-adv-x="1024" />

    
    <glyph glyph-name="book" unicode="&#58893;" d="M806.932 760.18h-542.85c-38.871 0-70.376-31.504-70.376-70.376v-81.212c-26.91-0.211-48.748-22.121-48.748-49.074 0-26.956 21.838-48.867 48.748-49.052v-76.968c-26.91-0.186-48.748-22.097-48.748-49.028 0-26.952 21.838-48.862 48.748-49.074v-76.968c-26.91-0.186-48.748-22.050-48.748-49.006 0-26.953 21.838-48.863 48.748-49.049v-80.511c0-38.87 31.504-70.375 70.376-70.375l542.87 0c38.896 0 70.376 31.505 70.376 70.375l-0 609.916c-0.021 38.871-31.479 70.4-70.396 70.4v0zM193.707 183.856c-13.96 0.212-25.291 11.539-25.291 25.567 0 14.006 11.331 25.311 25.291 25.523v-51.091zM193.707 358.9c-13.96 0.211-25.291 11.563-25.291 25.569 0 14.007 11.331 25.36 25.291 25.546v-51.115zM193.707 533.97c-13.96 0.189-25.291 11.543-25.291 25.549 0 14.003 11.331 25.355 25.291 25.545v-51.094zM853.847 79.889c0-25.875-21.019-46.919-46.914-46.919h-542.85c-25.875 0-46.919 21.043-46.919 46.919v609.915c0 25.875 21.043 46.919 46.919 46.919h542.87c25.9 0 46.918-21.043 46.918-46.919v-609.915h-0.024zM348.46 560.973h374.137v23.457h-374.137v-23.457zM348.46 185.263h374.137v23.457l-374.137-0v-23.457zM348.46 373.118h374.137v23.457h-374.137v-23.457zM348.46 373.118z"  horiz-adv-x="1024" />

    
    <glyph glyph-name="wujiaoxing" unicode="&#59178;" d="M670.208 559.030857 1024 504.978286 768.073143 242.688 828.562286-127.853714 512.073143 47.030857 195.657143-128 256 242.541714 0 504.905143 353.718857 558.957714 511.926857 896 670.208 559.030857Z"  horiz-adv-x="1024" />

    
    <glyph glyph-name="lianjie" unicode="&#58977;" d="M255.286756-26.208663c-39.151695 0-78.675874 11.506055-113.198132 35.480073l-7.27673 5.054109C44.707736 76.891484 22.305517 201.116763 84.870458 291.22092l189.772134 253.215072c29.733185 42.863227 75.230402 72.090898 127.525442 81.522712 52.29504 9.458419 105.123222-2.075265 148.771325-32.380478l7.27673-5.04183c37.048801-25.714661 64.507176-63.696718 77.305667-106.932428 4.269233-14.420431-3.965312-29.586852-18.399045-33.857109-14.407128-4.230348-29.572526 3.950985-33.857109 18.398022-9.417487 31.835056-28.828582 58.680471-56.112995 77.624938l-7.27673 5.04183c-31.715329 22.029736-70.108754 30.398334-108.036575 23.51967-37.96773-6.851035-70.999031-28.070312-93.016487-59.771315l-189.772134-253.216095c-44.858674-64.62588-28.589129-154.823158 36.836977-200.267163l7.27673-5.055133c65.399499-45.417399 155.609057-29.17446 201.053062 36.238342l57.975413 83.451644c8.593725 12.332886 25.542746 15.378246 37.927821 6.824429 12.345166-8.593725 15.405875-25.568329 6.824429-37.926798l-57.976436-83.438341C380.377752 3.602294 318.317301-26.208663 255.286756-26.208663zM554.651914 219.369475c-39.191604 0-78.795601 11.493775-113.384373 35.506678l-7.329942 5.108345c-37.023218 25.714661-64.454988 63.669088-77.225849 106.86489-4.270257 14.433734 3.977591 29.586852 18.398022 33.857109 14.473643 4.270257 29.600155-3.964288 33.857109-18.398022 9.405207-31.807427 28.801976-58.640562 56.086389-77.598332l7.329942-5.108345c65.372893-45.390793 155.582451-29.121248 201.026456 36.291554l189.758832 253.241678c44.871977 64.627926 28.602432 154.824181-36.82265 200.268186l-7.224542 4.975315c-31.768541 22.083971-70.121034 30.411637-108.10309 23.586185-37.96773-6.851035-71.000054-28.070312-93.016487-59.771315l-57.963133-83.438341c-8.581446-12.371772-25.556049-15.418154-37.914518-6.838755-12.358469 8.580422-15.418154 25.556049-6.838755 37.914518l57.963133 83.438341c30.305213 43.661406 75.80243 72.889077 128.110773 82.32089 52.28276 9.419534 105.136525-2.088568 148.784628-32.406061l7.209192-4.975315c90.183975-62.632479 112.573915-186.858782 49.993624-276.948613L717.58989 304.019411C679.382707 248.996237 617.548406 219.369475 554.651914 219.369475zM724.428645 463.71146c-2.846838 0-5.708002 0.8913-8.154727 2.727111-6.027274 4.50971-7.251148 13.050224-2.728134 19.063171l7.462972 9.950629c4.510734 6.02625 13.06455 7.223518 19.064194 2.727111 6.027274-4.50971 7.250124-13.050224 2.727111-19.063171l-7.462972-9.950629C732.66319 465.58718 728.578152 463.71146 724.428645 463.71146zM755.584226 505.270994c-2.846838 0-5.706979 0.8913-8.154727 2.727111-6.027274 4.50971-7.250124 13.050224-2.727111 19.063171l60.291155 80.431867c14.446014 20.820188 20.034289 46.508243 15.44476 71.931263-4.589528 25.435299-18.798135 47.559179-40.015366 62.286602l-4.670369 3.232624c-6.185886 4.296863-7.729032 12.785188-3.444449 18.957771 4.270257 6.185886 12.744255 7.742335 18.956747 3.445472l4.682649-3.245927c27.204595-18.890232 45.417399-47.239907 51.297316-79.833233 5.880941-32.593326-1.276063-65.518203-20.167319-92.710518l-60.582797-80.830957C763.819794 507.146715 759.734756 505.270994 755.584226 505.270994z"  horiz-adv-x="1024" />

    
    <glyph glyph-name="xinzengliebiao" unicode="&#59032;" d="M1008.369322-88.192477C1008.862642-90.391446 1009.131794-92.675431 1009.131794-95.023083 1009.131794-101.641722 1007.055583-107.772378 1003.528387-112.8127 998.015714-121.481245 988.332319-127.237528 977.298585-127.237528 974.405385-127.237528 971.607875-126.833418 968.95066-126.09382L55.04934-126.09382C52.392125-126.833418 49.594615-127.237528 46.701415-127.237528 35.6673-127.237528 25.983905-121.480864 20.471232-112.811937 16.944036-107.771997 14.868206-101.641722 14.868206-95.023083 14.868206-92.675431 15.136977-90.391827 15.630678-88.192858L15.630678 583.577066C15.630678 600.736882 29.541599 614.647803 46.701415 614.647803 63.86123 614.647803 77.772152 600.736882 77.772152 583.577066L77.772152-63.952345 946.227848-63.952345 946.227848 833.096054 328.816083 833.096054C311.656268 833.096054 297.745346 847.006975 297.745346 864.166791 297.745346 881.326606 311.656268 895.237528 328.816083 895.237528L978.061057 895.237528C995.220873 895.237528 1009.131794 881.326606 1009.131794 864.166791 1009.131794 861.819139 1008.862642 859.535154 1008.369322 857.336566L1008.369322-88.192477ZM201.077993 583.445921 839.267121 583.445921 839.267121 525.498043 201.077993 525.498043 201.077993 583.445921ZM201.077993 426.210073 839.267121 426.210073 839.267121 368.262195 201.077993 368.262195 201.077993 426.210073ZM839.267121 67.574088 201.077993 67.574088 201.077993 125.521966 839.267121 125.521966 839.267121 67.574088ZM201.077993 278.016381 839.267121 278.016381 839.267121 220.068503 201.077993 220.068503 201.077993 278.016381ZM266.602937 722.228039 190.165111 722.228039 190.165111 645.790213C190.165111 628.630016 176.25457 614.719476 159.094374 614.719476 141.934558 614.719476 128.023637 628.630016 128.023637 645.790213L128.023637 722.228039 51.585811 722.228039C34.425996 722.228039 20.515074 736.138579 20.515074 753.298776 20.515074 770.458591 34.425996 784.369513 51.585811 784.369513L128.023637 784.369513 128.023637 860.807339C128.023637 877.967154 141.934558 891.878076 159.094374 891.878076 176.25457 891.878076 190.165111 877.967154 190.165111 860.807339L190.165111 784.369513 266.602937 784.369513C283.763133 784.369513 297.673674 770.458591 297.673674 753.298776 297.673674 736.138579 283.763133 722.228039 266.602937 722.228039Z"  horiz-adv-x="1024" />

    
    <glyph glyph-name="caidan" unicode="&#59264;" d="M383.068024 426.973744l-171.915441 0c-47.39238 0-85.957721 38.533618-85.957721 85.957721l0 171.915441c0 47.39238 38.566364 85.957721 85.957721 85.957721l171.915441 0c47.40773 0 85.957721-38.566364 85.957721-85.957721l0-171.915441C469.025745 465.507362 430.475753 426.973744 383.068024 426.973744L383.068024 426.973744zM426.046884 684.846906c0 23.695678-19.283182 42.97886-42.97886 42.97886l-171.915441 0c-23.680329 0-42.97886-19.283182-42.97886-42.97886l0-171.915441c0-23.712051 19.298532-42.97886 42.97886-42.97886l171.915441 0c23.695678 0 42.97886 19.266809 42.97886 42.97886L426.046884 684.846906 426.046884 684.846906zM383.068024-2.798487l-171.915441 0c-47.39238 0-85.957721 38.518269-85.957721 85.941348l0 171.915441c0 47.39238 38.566364 85.957721 85.957721 85.957721l171.915441 0c47.40773 0 85.957721-38.566364 85.957721-85.957721l0-171.915441C469.025745 35.718759 430.475753-2.798487 383.068024-2.798487L383.068024-2.798487zM426.046884 255.058302c0 23.695678-19.283182 42.97886-42.97886 42.97886l-171.915441 0c-23.680329 0-42.97886-19.283182-42.97886-42.97886l0-171.915441c0-23.712051 19.298532-42.97886 42.97886-42.97886l171.915441 0c23.695678 0 42.97886 19.266809 42.97886 42.97886L426.046884 255.058302 426.046884 255.058302zM877.35664 147.483238c-11.879562 0-21.521153 9.577123-21.521153 21.457708l0 86.117356c0 23.695678-19.283182 42.97886-42.97886 42.97886l-171.915441 0c-23.680329 0-42.97886-19.283182-42.97886-42.97886l0-171.915441c0-23.712051 19.298532-42.97886 42.97886-42.97886l86.117356 0c11.864212 0 21.48943-9.657964 21.48943-21.521153 0-11.83249-9.625218-21.441335-21.48943-21.441335L640.941186-2.798487c-47.39238 0-85.957721 38.518269-85.957721 85.941348l0 171.915441c0 47.39238 38.566364 85.957721 85.957721 85.957721l171.915441 0c47.40773 0 85.957721-38.566364 85.957721-85.957721l0-86.117356C898.814348 157.060361 889.188106 147.483238 877.35664 147.483238L877.35664 147.483238zM812.856627 426.973744l-171.915441 0c-47.39238 0-85.957721 38.533618-85.957721 85.957721l0 171.915441c0 47.39238 38.566364 85.957721 85.957721 85.957721l171.915441 0c47.40773 0 85.957721-38.566364 85.957721-85.957721l0-171.915441C898.814348 465.507362 860.264357 426.973744 812.856627 426.973744L812.856627 426.973744zM855.835488 684.846906c0 23.695678-19.283182 42.97886-42.97886 42.97886l-171.915441 0c-23.680329 0-42.97886-19.283182-42.97886-42.97886l0-171.915441c0-23.712051 19.298532-42.97886 42.97886-42.97886l171.915441 0c23.695678 0 42.97886 19.266809 42.97886 42.97886L855.835488 684.846906 855.835488 684.846906z"  horiz-adv-x="1024" />

    
    <glyph glyph-name="tubiao" unicode="&#59110;" d="M896-32 768-32C732.656-32 704-3.344 704 32L704 480C704 515.344 732.656 544 768 544L896 544C931.344 544 960 515.344 960 480L960 32C960-3.344 931.344-32 896-32ZM896 480 768 480 768 32 896 32 896 480ZM576-32 448-32C412.656-32 384-3.344 384 32L384 736C384 771.344 412.656 800 448 800L576 800C611.344 800 640 771.344 640 736L640 32C640-3.344 611.344-32 576-32ZM576 736 448 736 448 32 576 32 576 736ZM256-32 128-32C92.656-32 64-3.344 64 32L64 352C64 387.344 92.656 416 128 416L256 416C291.344 416 320 387.344 320 352L320 32C320-3.344 291.344-32 256-32ZM256 352 128 352 128 32 256 32 256 352Z"  horiz-adv-x="1024" />

    
    <glyph glyph-name="shuqianbookmark30" unicode="&#59085;" d="M791.272727 806.958545C791.272727 896 698.181818 896 698.181818 896L325.818182 896c0 0-93.090909 0-93.090909-89.041455L232.727273-128l279.272727 267.124364L791.272727-128 791.272727 806.958545z"  horiz-adv-x="1024" />

    
    <glyph glyph-name="jiedianlianjie" unicode="&#58945;" d="M212.992 369.664 212.992 369.664 212.992 369.664 215.04 369.664 212.992 369.664ZM927.744 365.568 567.296 365.568c-10.24 0-20.48-10.24-20.48-20.48l0-221.184c0-12.288 10.24-20.48 20.48-20.48l360.448 0c10.24 0 20.48 8.192 20.48 20.48L948.224 345.088C948.224 357.376 937.984 365.568 927.744 365.568zM909.312 166.912c0-14.336-10.24-24.576-24.576-24.576L610.304 142.336c-14.336 0-24.576 10.24-24.576 24.576L585.728 302.08c0 14.336 10.24 24.576 24.576 24.576l272.384 0c14.336 0 24.576-10.24 24.576-24.576L907.264 166.912zM663.552 80.896l167.936 0 0-24.576-167.936 0 0 24.576ZM454.656 717.824 96.256 717.824c-12.288 0-20.48-10.24-20.48-20.48l0-221.184c0-12.288 8.192-20.48 20.48-20.48l360.448 0c12.288 0 20.48 8.192 20.48 20.48L477.184 697.344C475.136 709.632 466.944 717.824 454.656 717.824zM436.224 519.168c0-14.336-10.24-24.576-24.576-24.576L139.264 494.592c-14.336 0-24.576 10.24-24.576 24.576l0 135.168c0 14.336 10.24 24.576 24.576 24.576l272.384 0c14.336 0 24.576-10.24 24.576-24.576L436.224 519.168zM192.512 433.152l167.936 0 0-24.576-167.936 0 0 24.576ZM727.04 582.656l24.576 0 0-223.232-24.576 0 0 223.232ZM751.616 697.344c-36.864 0-65.536-30.72-65.536-65.536s30.72-65.536 65.536-65.536c36.864 0 65.536 30.72 65.536 65.536S788.48 697.344 751.616 697.344zM751.616 592.896c-20.48 0-38.912 16.384-38.912 38.912s16.384 38.912 38.912 38.912 38.912-16.384 38.912-38.912S774.144 592.896 751.616 592.896zM323.584 211.968l223.232 0 0-24.576-223.232 0 0 24.576ZM475.136 642.048l223.232 0 0-24.576-223.232 0 0 24.576ZM270.336 408.576l24.576 0 0-169.984-24.576 0 0 169.984ZM270.336 257.024c-36.864 0-65.536-30.72-65.536-65.536s30.72-65.536 65.536-65.536 65.536 30.72 65.536 65.536S307.2 257.024 270.336 257.024zM270.336 152.576c-20.48 0-38.912 16.384-38.912 38.912s16.384 38.912 38.912 38.912 38.912-16.384 38.912-38.912S290.816 152.576 270.336 152.576z"  horiz-adv-x="1024" />

    
    <glyph glyph-name="records" unicode="&#58892;" d="M720.333 56.888c0-37.872-30.701-68.563-68.579-68.563h-372.894c-37.878 0-68.578 30.691-68.578 68.563v376.419h160.238c37.878 0 68.578 30.689 68.578 68.562v188.033h157.25l42.336 51.528-209.669 0-275.186-308.122v-422.937c0-40.638 32.939-73.57 73.58-73.57l475.789 0c40.643 0 73.581 32.932 73.581 73.57l0 529.771-56.447-46.376v-436.877zM320.152 253.874h225.798v-52.423h-225.798v52.423zM320.152 122.825h338.691v-52.4h-338.691v52.4zM581.122 610.219l110.815-99.888 126.588 140.405-110.812 99.888zM784.666 832.113l-31.96-35.427 110.815-99.881 31.959 35.414zM528.986 438.015l110.231 40.871-90.491 75.034z"  horiz-adv-x="1024" />

    
    <glyph glyph-name="shouji" unicode="&#58913;" d="M512 76.9c-28.4 0-51.5-23.1-51.5-51.5 0-28.4 23.1-51.5 51.5-51.5 28.4 0 51.5 23.1 51.5 51.5C563.5 53.8 540.4 76.9 512 76.9zM822.8 867.5c-15 15-35 23.3-56.2 23.3L257.4 890.8c-43.8 0-79.5-35.7-79.5-79.5l0-854.6c0-43.8 35.7-79.5 79.5-79.5l509.2 0c43.8 0 79.5 35.7 79.5 79.5L846.1 811.3C846.1 832.5 837.9 852.5 822.8 867.5zM233.3 113l557.4 0 0-156.3c0-6.4-2.5-12.5-7.1-17-4.6-4.6-10.6-7.1-17-7.1L257.4-67.4c-13.3 0-24.1 10.8-24.1 24.1L233.3 113zM257.4 835.4l509.2 0c13.3 0 24.1-10.8 24.1-24.1l0-638.5L233.3 172.8 233.3 811.3C233.3 824.6 244.1 835.4 257.4 835.4z"  horiz-adv-x="1024" />

    
    <glyph glyph-name="iconset0137" unicode="&#58916;" d="M801.792 840.704c-47.104 0-90.112-17.408-119.808-47.104L123.904 230.4 55.296-76.8l307.2 68.608L921.6 559.104c29.696 29.696 47.104 72.704 47.104 119.808C968.704 768 896 840.704 801.792 840.704zM324.608 33.792l-145.408-33.792 0 51.2-51.2 0 33.792 145.408 161.792 0L323.584 33.792zM362.496 59.392 362.496 217.088c0 13.312-8.192 21.504-21.504 21.504l-153.6 0 447.488 448.512 179.2-175.104L362.496 59.392zM891.904 588.8l-47.104-47.104L669.696 716.8l47.104 47.104c0 0 33.792 38.912 90.112 38.912 68.608 0 123.904-55.296 123.904-123.904C925.696 640 913.408 610.304 891.904 588.8z"  horiz-adv-x="1024" />

    
    <glyph glyph-name="iconset0203" unicode="&#59034;" d="M682.666667 187.733333c0 0-76.8 19.2-76.8 98.133333 0 70.4 32 93.866667 42.666667 110.933333 0 0 25.6 21.333333 8.533333 91.733333 27.733333 38.4 36.266667 102.4 2.133333 179.2-19.2 44.8-36.266667 70.4-61.866667 85.333333C580.266667 763.733333 558.933333 768 537.6 768c-38.4 0-74.666667-12.8-89.6-23.466667C405.333333 725.333333 377.6 708.266667 349.866667 640c-23.466667-55.466667 4.266667-117.333333 17.066667-149.333333-17.066667-70.4 6.4-93.866667 6.4-93.866667 12.8-17.066667 42.666667-42.666667 42.666667-110.933333 0-78.933333-76.8-98.133333-76.8-98.133333C294.4 170.666667 192 136.533333 192 21.333333c0 0 0-21.333333 21.333333-21.333333l597.333333 0c21.333333 0 21.333333 21.333333 21.333333 21.333333C832 136.533333 731.733333 170.666667 682.666667 187.733333zM236.8 42.666667c10.666667 59.733333 61.866667 83.2 117.333333 102.4l2.133333 0c38.4 10.666667 106.666667 51.2 106.666667 138.666667 0 74.666667-29.866667 110.933333-46.933333 130.133333-4.266667 4.266667-6.4 8.533333-6.4 8.533333-2.133333 2.133333-8.533333 19.2 2.133333 57.6 4.266667 19.2-2.133333 27.733333-2.133333 27.733333-10.666667 25.6-34.133333 74.666667-17.066667 115.2 21.333333 55.466667 40.533333 66.133333 76.8 81.066667 2.133333 0 4.266667 2.133333 6.4 4.266667C477.866667 712.533333 505.6 725.333333 537.6 725.333333c14.933333 0 29.866667-2.133333 40.533333-8.533333 12.8-6.4 25.6-21.333333 42.666667-64 34.133333-78.933333 12.8-121.6 2.133333-136.533333-6.4-10.666667-10.666667-23.466667-6.4-34.133333 8.533333-36.266667 2.133333-51.2 2.133333-53.333333 0 0-6.4-6.4-8.533333-10.666667-17.066667-19.2-46.933333-55.466667-46.933333-130.133333 0-87.466667 68.266667-128 106.666667-138.666667l2.133333 0c53.333333-19.2 106.666667-42.666667 117.333333-102.4L236.8 46.933333zM145.066667 194.133333c27.733333 8.533333 78.933333 40.533333 78.933333 113.066667 0 66.133333-21.333333 93.866667-32 110.933333l-2.133333 2.133333c0 0 0 0 0 0 0 2.133333-4.266667 14.933333 2.133333 38.4 2.133333 8.533333 0 19.2-2.133333 27.733333-8.533333 19.2-25.6 53.333333-12.8 81.066667 19.2 44.8 25.6 49.066667 46.933333 57.6 2.133333 0 4.266667 2.133333 6.4 2.133333 4.266667 4.266667 27.733333 10.666667 49.066667 10.666667 10.666667 0 19.2-2.133333 25.6-6.4 2.133333 6.4 4.266667 14.933333 6.4 21.333333 2.133333 6.4 6.4 12.8 8.533333 17.066667-12.8 6.4-27.733333 8.533333-42.666667 8.533333-29.866667 0-59.733333-10.666667-72.533333-17.066667-34.133333-14.933333-49.066667-27.733333-70.4-81.066667-19.2-44.8 4.266667-91.733333 14.933333-115.2-12.8-55.466667 4.266667-74.666667 4.266667-74.666667 10.666667-12.8 25.6-32 25.6-87.466667 0-61.866667-46.933333-72.533333-46.933333-72.533333C93.866667 221.866667 42.666667 192 42.666667 106.666667c0 0 0-21.333333 21.333333-21.333333l96 0c4.266667 14.933333 12.8 29.866667 19.2 42.666667l-91.733333 0C93.866667 168.533333 119.466667 183.466667 145.066667 194.133333zM891.733333 234.666667c0 0-46.933333 10.666667-46.933333 72.533333 0 55.466667 17.066667 74.666667 25.6 87.466667 0 0 19.2 19.2 4.266667 74.666667 10.666667 23.466667 34.133333 72.533333 14.933333 115.2-21.333333 53.333333-36.266667 66.133333-70.4 81.066667C806.4 672 778.666667 682.666667 746.666667 682.666667c-14.933333 0-29.866667-2.133333-42.666667-8.533333 6.4-12.8 10.666667-27.733333 12.8-40.533333 0 0 2.133333 0 2.133333 0C725.333333 637.866667 736 640 746.666667 640c21.333333 0 42.666667-8.533333 49.066667-10.666667 2.133333-2.133333 4.266667-2.133333 6.4-2.133333 21.333333-8.533333 29.866667-12.8 46.933333-57.6 10.666667-25.6-4.266667-61.866667-12.8-81.066667-4.266667-8.533333-6.4-19.2-2.133333-27.733333 6.4-23.466667 2.133333-34.133333 2.133333-38.4 0 0 0 0 0 0l-2.133333-2.133333c-10.666667-14.933333-32-44.8-32-110.933333 0-72.533333 49.066667-106.666667 78.933333-113.066667 27.733333-10.666667 53.333333-25.6 59.733333-66.133333l-91.733333 0c8.533333-12.8 14.933333-27.733333 19.2-42.666667l96 0c21.333333 0 21.333333 21.333333 21.333333 21.333333C981.333333 192 930.133333 221.866667 891.733333 234.666667z"  horiz-adv-x="1024" />

    
    <glyph glyph-name="iconset0403" unicode="&#59162;" d="M565.333333 290.133333c-44.8 38.4-40.533333 55.466667-98.133333 55.466667s-93.866667-12.8-78.933333-93.866667 57.6-44.8 53.333333-104.533333 10.666667-74.666667 19.2-89.6 38.4-57.6 49.066667 2.133333 29.866667 93.866667 53.333333 123.733333S610.133333 251.733333 565.333333 290.133333zM407.466667 430.933333c2.133333 29.866667 51.2 61.866667 85.333333 76.8s64 19.2 59.733333 44.8S539.733333 597.333333 488.533333 597.333333s-29.866667-70.4-72.533333-27.733333 8.533333 29.866667 29.866667 40.533333 42.666667 49.066667 6.4 51.2-29.866667-17.066667-59.733333-6.4-42.666667-38.4-61.866667-29.866667c-12.8 4.266667-44.8 29.866667-68.266667 53.333333-44.8-36.266667-78.933333-83.2-102.4-138.666667 6.4-72.533333 44.8-108.8 44.8-108.8s19.2-46.933333 140.8-104.533333c0 0 23.466667-2.133333-4.266667 25.6s-55.466667 59.733333-23.466667 76.8 42.666667 17.066667 51.2-17.066667S405.333333 398.933333 407.466667 430.933333zM893.866667 420.266667c0 4.266667 0 6.4-2.133333 10.666667 0 8.533333-2.133333 17.066667-4.266667 23.466667 0 4.266667-2.133333 8.533333-2.133333 12.8-2.133333 8.533333-4.266667 14.933333-6.4 23.466667 0 4.266667-2.133333 6.4-2.133333 10.666667-4.266667 10.666667-6.4 21.333333-10.666667 29.866667-2.133333 4.266667-4.266667 8.533333-6.4 12.8-2.133333 6.4-6.4 10.666667-8.533333 17.066667-2.133333 4.266667-6.4 10.666667-8.533333 14.933333-2.133333 4.266667-4.266667 8.533333-8.533333 12.8-4.266667 4.266667-6.4 10.666667-10.666667 14.933333-2.133333 2.133333-4.266667 6.4-6.4 8.533333-14.933333 19.2-32 38.4-51.2 55.466667-2.133333 0-2.133333 2.133333-4.266667 2.133333-6.4 6.4-12.8 10.666667-21.333333 17.066667 0 0 0 0-2.133333 0-29.866667 23.466667-64 42.666667-100.266667 55.466667-10.666667-17.066667-21.333333-38.4-34.133333-46.933333-19.2-10.666667-17.066667-53.333333 19.2-49.066667 0 0-10.666667-10.666667 0-49.066667s27.733333-46.933333 81.066667-25.6c23.466667 8.533333 40.533333 4.266667 38.4-19.2-6.4-49.066667-42.666667-46.933333-14.933333-125.866667 17.066667-49.066667 59.733333-66.133333 76.8-104.533333 8.533333-21.333333 42.666667-38.4 70.4-53.333333 2.133333 10.666667 6.4 21.333333 8.533333 29.866667 0 4.266667 2.133333 8.533333 2.133333 12.8 2.133333 8.533333 2.133333 14.933333 4.266667 23.466667 0 4.266667 0 6.4 2.133333 10.666667 0 10.666667 2.133333 23.466667 2.133333 34.133333C896 396.8 896 407.466667 893.866667 420.266667zM748.8 294.4c-14.933333-8.533333-14.933333-29.866667-2.133333-40.533333 12.8-10.666667 38.4-25.6 46.933333 0S763.733333 302.933333 748.8 294.4zM512 853.333333C251.733333 853.333333 42.666667 644.266667 42.666667 384s209.066667-469.333333 469.333333-469.333333 469.333333 209.066667 469.333333 469.333333S772.266667 853.333333 512 853.333333zM512-42.666667C277.333333-42.666667 85.333333 149.333333 85.333333 384S277.333333 810.666667 512 810.666667c234.666667 0 426.666667-192 426.666667-426.666667S746.666667-42.666667 512-42.666667z"  horiz-adv-x="1024" />

    
    <glyph glyph-name="iconset0410" unicode="&#59169;" d="M590.933333 676.266667C586.666667 680.533333 582.4 682.666667 576 682.666667c-12.8 0-21.333333-8.533333-21.333333-21.333333 0-6.4 2.133333-10.666667 6.4-14.933333l70.4-70.4L341.333333 576c-12.8 0-21.333333-8.533333-21.333333-21.333333 0-12.8 8.533333-21.333333 21.333333-21.333333l290.133333 0-70.4-70.4C556.8 458.666667 554.666667 454.4 554.666667 448c0-12.8 8.533333-21.333333 21.333333-21.333333 6.4 0 10.666667 2.133333 14.933333 6.4l106.666667 106.666667c4.266667 4.266667 6.4 8.533333 6.4 14.933333 0 6.4-2.133333 10.666667-6.4 14.933333L590.933333 676.266667zM938.666667 341.333333 938.666667 768c0 23.466667-19.2 42.666667-42.666667 42.666667l-85.333333 0L810.666667 832c0 12.8-8.533333 21.333333-21.333333 21.333333s-21.333333-8.533333-21.333333-21.333333l0-21.333333L256 810.666667 256 832c0 12.8-8.533333 21.333333-21.333333 21.333333s-21.333333-8.533333-21.333333-21.333333l0-21.333333L128 810.666667C104.533333 810.666667 85.333333 791.466667 85.333333 768l0-426.666667c-23.466667 0-42.666667-19.2-42.666667-42.666667l0-42.666667c0-23.466667 19.2-42.666667 42.666667-42.666667l85.333333 0 0-277.333333c0-12.8 8.533333-21.333333 21.333333-21.333333s21.333333 8.533333 21.333333 21.333333l0 34.133333 49.066667-49.066667c4.266667-4.266667 8.533333-6.4 14.933333-6.4 12.8 0 21.333333 8.533333 21.333333 21.333333L298.666667 213.333333l426.666667 0 0-277.333333c0-12.8 8.533333-21.333333 21.333333-21.333333 6.4 0 10.666667 2.133333 14.933333 6.4l49.066667 49.066667L810.666667-64c0-12.8 8.533333-21.333333 21.333333-21.333333s21.333333 8.533333 21.333333 21.333333L853.333333 213.333333l85.333333 0c23.466667 0 42.666667 19.2 42.666667 42.666667l0 42.666667C981.333333 322.133333 962.133333 341.333333 938.666667 341.333333zM128 768l768 0 0-426.666667L128 341.333333 128 768zM256-12.8 221.866667 21.333333l34.133333 34.133333L256-12.8zM213.333333 72.533333l0 68.266667 34.133333-34.133333L213.333333 72.533333zM256 157.866667l-42.666667 42.666667L213.333333 213.333333l42.666667 0L256 157.866667zM768-12.8l0 68.266667 34.133333-34.133333L768-12.8zM810.666667 72.533333 776.533333 106.666667l34.133333 34.133333L810.666667 72.533333zM810.666667 200.533333l-42.666667-42.666667L768 213.333333l42.666667 0L810.666667 200.533333zM938.666667 256 85.333333 256l0 42.666667 853.333333 0L938.666667 256z"  horiz-adv-x="1024" />

    
    <glyph glyph-name="iconset0411" unicode="&#59170;" d="M960 853.333333 192 853.333333C179.2 853.333333 170.666667 844.8 170.666667 832l0-320c0-12.8 8.533333-21.333333 21.333333-21.333333s21.333333 8.533333 21.333333 21.333333L213.333333 810.666667l725.333333 0 0-853.333333L213.333333-42.666667 213.333333 256c0 12.8-8.533333 21.333333-21.333333 21.333333s-21.333333-8.533333-21.333333-21.333333l0-320c0-12.8 8.533333-21.333333 21.333333-21.333333l768 0c12.8 0 21.333333 8.533333 21.333333 21.333333L981.333333 832C981.333333 844.8 972.8 853.333333 960 853.333333zM603.733333 228.266667C599.466667 224 597.333333 219.733333 597.333333 213.333333c0-12.8 8.533333-21.333333 21.333333-21.333333 6.4 0 10.666667 2.133333 14.933333 6.4l170.666667 170.666667c4.266667 4.266667 6.4 8.533333 6.4 14.933333 0 6.4-2.133333 10.666667-6.4 14.933333l-170.666667 170.666667C629.333333 573.866667 625.066667 576 618.666667 576c-12.8 0-21.333333-8.533333-21.333333-21.333333 0-6.4 2.133333-10.666667 6.4-14.933333l134.4-134.4L64 405.333333c-12.8 0-21.333333-8.533333-21.333333-21.333333s8.533333-21.333333 21.333333-21.333333l674.133333 0L603.733333 228.266667z"  horiz-adv-x="1024" />

    
    <glyph glyph-name="jihua" unicode="&#58937;" d="M674.508 297.662h-387.428c-14.137 0-25.639-11.5-25.639-25.637 0-14.138 11.502-25.641 25.639-25.641h387.428c14.138 0 25.641 11.502 25.641 25.641 0 14.137-11.502 25.637-25.641 25.637zM794.746 511.417c-14.138 0-25.641-11.502-25.641-25.64v-494.3c0-0.131 0-0.28-0.001-0.434-0.899-0.279-2.666-0.645-5.764-0.645l-563.292 0c-4.312 0-7.564 2.972-7.564 6.913l-0 706.836c0 4.493 0.974 8.289 1.811 9.822h373.338c14.137 0 25.64 11.502 25.64 25.64 0 14.137-11.502 25.639-25.64 25.639h-374.070c-30.337 0-52.357-25.696-52.357-61.1v-706.836c0-32.087 26.396-58.191 58.841-58.191h563.293c34.119 0 57.042 21.041 57.042 52.356l0 494.298c0.001 14.138-11.499 25.641-25.636 25.641zM674.508 150.705h-387.428c-14.137 0-25.639-11.5-25.639-25.637 0-14.138 11.502-25.641 25.639-25.641h387.428c14.138 0 25.641 11.502 25.641 25.641 0 14.137-11.502 25.637-25.641 25.637zM879.596 738.893c-3.773 14.409-12.871 28.25-24.965 37.976l-43.827 35.241c-12.88 10.353-29.277 16.29-44.987 16.29-16.876 0-31.595-6.748-41.44-18.996l-19.625-24.381c-6.38-7.968-7.988-17.577-5.223-26.916l-116.729-145.154-22.813-85.304c-9.749-30.86 4.449-48.076 13.806-55.609 6.783-5.45 14.469-8.729 22.851-9.754 0.984-0.247 2.125-0.488 3.44-0.632 1.004-0.111 2.054-0.168 3.118-0.168h0.014c4.589 0 10.048 0.997 17.18 3.135l2.878 1.065 83.403 41.897 119.874 149.079c0.44-0.017 0.88-0.033 1.32-0.033 9.219 0 17.412 3.863 23.078 10.892l19.563 24.342c10.411 12.938 13.637 29.64 9.082 47.028zM674.47 547.435l-56.738-28.538c-2.958-0.579-5.735-1.684-8.278-3.296-0.313-0.199-0.615-0.386-0.906-0.563 0.124 0.318 0.254 0.64 0.393 0.971 1 2.438 1.588 5.022 1.754 7.702l17.733 66.079 105.732 131.489 48.648-39.114-108.338-134.731zM831.386 723.081l-7.68-9.551-68.14 54.78 7.687 9.564c0.292 0.132 1.144 0.384 2.604 0.384 4.284 0 9.736-2.071 13.57-5.156l43.832-35.246c3.494-2.806 6.421-7.019 7.642-10.993 0.596-1.943 0.59-3.308 0.484-3.781zM487.475 604.933h-200.394c-14.137 0-25.639-11.502-25.639-25.64 0-14.137 11.502-25.638 25.639-25.638h200.394c14.138 0 25.64 11.501 25.64 25.638 0 14.138-11.503 25.64-25.64 25.64zM674.508 457.977h-387.428c-14.137 0-25.639-11.501-25.639-25.639s11.502-25.639 25.639-25.639h387.428c14.138 0 25.641 11.502 25.641 25.639s-11.502 25.639-25.641 25.639z"  horiz-adv-x="1024" />

    
    <glyph glyph-name="xiangqing" unicode="&#59037;" d="M513.717619 831.532733c-247.535723 0-448.205045-200.672392-448.205045-448.211185 0-247.536746 200.669322-448.205045 448.205045-448.205045 247.540839 0 448.211185 200.668299 448.211185 448.205045C961.928804 630.860341 761.258459 831.532733 513.717619 831.532733L513.717619 831.532733zM507.696486 61.119265c-22.99369-12.846586-41.802058-19.270902-56.388265-19.270902-12.787234 0-22.915919 3.931542-30.395264 11.776208-7.481392 7.848759-11.218506 18.738783-11.218506 32.654724 0 44.601824 27.373441 153.62589 82.125439 327.059917 2.559289 8.209986 3.837398 15.527648 3.837398 21.945825 0 7.131421-3.28686 10.704806-9.857509 10.704806-7.305383 0-15.600303-2.861164-24.904203-8.563026-9.31311-5.713119-30.039153-23.914666-62.147432-54.602595l-24.093744 18.201547c36.455283 39.250956 69.725014 67.184145 99.79589 83.773985 30.086226 16.590863 55.685253 24.8909 76.832899 24.8909 11.673877 0 20.60427-2.499937 26.800389-7.489578 6.191003-5.002944 9.299807-11.776208 9.299807-20.343327 0-10.353812-11.830443-54.248531-35.499515-131.687228-38.579667-126.679168-57.871035-203.057719-57.871035-229.101885 0-4.999874 1.269923-9.193383 3.832282-12.577456 2.552126-3.394307 5.2864-5.078669 8.214079-5.078669 11.67797 0 41.6107 22.116717 89.788979 66.372663l21.35333-20.340257C567.184345 103.413534 530.692223 73.966874 507.696486 61.119265L507.696486 61.119265zM635.065362 603.412199c-11.136641-11.962449-23.635303-17.928325-37.505195-17.928325-10.94733 0-20.076244 3.747347-27.376511 11.242042-7.300266 7.486508-10.94733 17.300015-10.94733 29.440519 0 16.053628 5.28333 29.707602 15.876596 40.950667 10.579963 11.235902 23.177885 16.854876 37.784558 16.854876 11.304464 0 20.61655-3.66139 27.916816-10.967796 7.300266-7.322779 10.946306-16.688077 10.946306-28.102035C651.764696 629.196445 646.19791 615.372601 635.065362 603.412199L635.065362 603.412199z"  horiz-adv-x="1024" />

    
    <glyph glyph-name="jiahao" unicode="&#59174;" d="M512-62.016611c-119.648434 0-232.1288 46.367961-316.736783 130.559656-84.640667 84.255342-131.263217 196.255772-131.263217 315.455235 0 119.168499 46.624271 231.199892 131.232254 315.424271 84.607983 84.191695 197.088348 130.559656 316.736783 130.559656s232.1288-46.367961 316.704099-130.559656c84.67163-84.224378 131.263217-196.255772 131.263217-315.391587 0.032684-119.199462-46.591587-231.232576-131.263217-315.455235C744.1288-15.615966 631.648434-62.016611 512-62.016611zM512 766.016611c-102.623626 0-199.071738-39.743475-271.583282-111.936783-72.480581-72.12794-112.416718-168.063432-112.416718-270.079828s39.903454-197.951888 112.384034-270.047144c72.511544-72.191587 168.959656-111.936783 271.583282-111.936783 102.592662 0 199.071738 39.743475 271.583282 111.936783 72.480581 72.160624 112.416718 168.063432 112.384034 270.079828 0 102.016396-39.903454 197.919204-112.384034 270.016181C711.071738 726.240452 614.592662 766.016611 512 766.016611zM736.00086 415.99914 544.00086 415.99914 544.00086 607.99914c0 17.664722-14.336138 32.00086-32.00086 32.00086s-32.00086-14.336138-32.00086-32.00086l0-192L288.00086 415.99914c-17.664722 0-32.00086-14.336138-32.00086-32.00086s14.336138-32.00086 32.00086-32.00086l192 0 0-192c0-17.695686 14.336138-32.00086 32.00086-32.00086s32.00086 14.303454 32.00086 32.00086L544.00258 351.99914l192 0c17.695686 0 32.00086 14.336138 32.00086 32.00086S753.696546 415.99914 736.00086 415.99914z"  horiz-adv-x="1024" />

    
    <glyph glyph-name="qiapianxingshi" unicode="&#59199;" d="M383.935495 416.080632 191.967747 416.080632c-52.980346 0-95.983874 43.003528-95.983874 95.983874L95.983874 704.032253c0 52.980346 43.003528 95.983874 95.983874 95.983874l191.967747 0c52.980346 0 95.983874-43.003528 95.983874-95.983874l0-191.967747C479.919368 459.084159 436.915841 416.080632 383.935495 416.080632zM191.967747 736.026877c-17.545439 0-31.994625-14.449185-31.994625-31.994625l0-191.967747c0-17.545439 14.449185-31.994625 31.994625-31.994625l191.967747 0c17.545439 0 31.994625 14.449185 31.994625 31.994625L415.930119 704.032253c0 17.545439-14.449185 31.994625-31.994625 31.994625L191.967747 736.026877 191.967747 736.026877zM383.935495-32.016126 191.967747-32.016126c-52.980346 0-95.983874 43.003528-95.983874 95.983874L95.983874 256.107509c0 52.980346 43.003528 95.983874 95.983874 95.983874l191.967747 0c52.980346 0 95.983874-43.003528 95.983874-95.983874l0-191.967747C479.919368 11.159415 436.915841-32.016126 383.935495-32.016126zM191.967747 288.102133c-17.545439 0-31.994625-14.277171-31.994625-31.994625l0-191.967747c0-17.717453 14.449185-31.994625 31.994625-31.994625l191.967747 0c17.545439 0 31.994625 14.277171 31.994625 31.994625L415.930119 256.107509c0 17.717453-14.449185 31.994625-31.994625 31.994625L191.967747 288.102133 191.967747 288.102133zM832.032253-32.016126 639.892491-32.016126c-52.980346 0-95.983874 43.003528-95.983874 95.983874l0 63.989249c0 52.980346 43.003528 95.983874 95.983874 95.983874l191.967747 0c52.980346 0 95.983874-43.003528 95.983874-95.983874l0-63.989249C928.016126 11.159415 884.840585-32.016126 832.032253-32.016126zM639.892491 159.951621c-17.717453 0-31.994625-14.277171-31.994625-31.994625l0-63.989249c0-17.717453 14.277171-31.994625 31.994625-31.994625l191.967747 0c17.717453 0 31.994625 14.277171 31.994625 31.994625l0 63.989249c0 17.717453-14.277171 31.994625-31.994625 31.994625L639.892491 159.951621 639.892491 159.951621zM832.032253 288.102133 639.892491 288.102133c-52.980346 0-95.983874 43.003528-95.983874 95.983874l0 319.946246c0 52.980346 43.003528 95.983874 95.983874 95.983874l191.967747 0c52.980346 0 95.983874-43.003528 95.983874-95.983874l0-319.946246C928.016126 331.105661 884.840585 288.102133 832.032253 288.102133zM639.892491 736.026877c-17.717453 0-31.994625-14.449185-31.994625-31.994625l0-319.946246c0-17.545439 14.277171-31.994625 31.994625-31.994625l191.967747 0c17.717453 0 31.994625 14.449185 31.994625 31.994625l0 319.946246c0 17.545439-14.277171 31.994625-31.994625 31.994625L639.892491 736.026877 639.892491 736.026877z"  horiz-adv-x="1024" />

    
    <glyph glyph-name="xiangyou2" unicode="&#59254;" d="M512-64c-247.039484 0-448 200.960516-448 448S264.960516 832 512 832 960 631.039484 960 384 759.039484-64 512-64zM512 768c-211.744443 0-384-172.255557-384-384s172.255557-384 384-384 384 172.255557 384 384S723.744443 768 512 768zM732.959548 394.847574c-0.032684 0.127295-0.192662 0.25631-0.25631 0.383604-1.536138 3.615858-3.648542 7.071738-6.591802 10.047682-0.032684 0.032684-0.063647 0.032684-0.096331 0.063647-0.032684 0.032684-0.032684 0.063647-0.063647 0.096331l-158.911974 159.359226c-12.480043 12.480043-32.704421 12.576374-45.248112 0.063647-12.512727-12.480043-12.54369-32.735385-0.063647-45.248112l103.328907-103.616181L320 415.99742c-17.664722 0-31.99914-14.336138-31.99914-32.00086s14.336138-32.00086 31.99914-32.00086l306.752748 0-106.112189-104.959656c-12.576374-12.447359-12.672705-32.671738-0.25631-45.248112 6.239161-6.335493 14.496116-9.504099 22.751351-9.504099 8.12794 0 16.25588 3.103239 22.496761 9.247789l160.25545 158.495686C735.328262 369.407553 737.72794 383.232791 732.959548 394.847574z"  horiz-adv-x="1024" />

    
    <glyph glyph-name="bianji1" unicode="&#59039;" d="M703.698508 831.982988 703.698508 768.03863 127.91788 768.03863 127.91788 0.494513 767.527233 0.494513 767.527233 320.214255 831.526849 320.214255 831.526849-63.482591 64.027757-63.482591 64.027757 831.982988ZM191.533756 640.509095l383.739824 0 0-64.46829-383.739824 0 0 64.46829ZM191.533756 512.680754l383.739824 0 0-64.46829-383.739824 0 0 64.46829ZM191.533756 384.249687l191.869912 0 0-64.46829-191.869912 0 0 64.46829ZM191.533756 256.855228l191.869912 0 0-64.46829-191.869912 0 0 64.46829ZM458.388477 202.272076 855.373976 781.6046 960.726419 709.344856 563.74092 130.013355 438.929286 60.32211Z"  horiz-adv-x="1024" />

    
    <glyph glyph-name="qiyechazhao" unicode="&#59142;" d="M656.042569 831.858069c246.958712 0 447.888756-200.902482 447.888756-447.859941 0-246.923633-200.931297-447.85493-447.888756-447.85493-246.92238 0-447.824862 200.931297-447.824862 447.85493C208.217708 630.954334 409.120189 831.858069 656.042569 831.858069M656.042569 896.000033C373.325822 896.000033 144.074491 666.748702 144.074491 383.998128c0-282.746815 229.188689-511.998146 511.968078-511.998146 282.780642 0 512.033225 229.25133 512.033225 511.998146C1168.074541 666.748702 938.823211 896.000033 656.042569 896.000033L656.042569 896.000033 656.042569 896.000033zM656.042569 896.000033M272.360924 231.351831M541.91678 465.680848c0 1.710102 0.142822 3.28114 0.285643 4.847167-8.130813-13.263623-12.97798-28.81114-12.97798-45.353397 0-47.924187 38.79237-86.573735 86.568724-86.573735 18.398939 0 35.513736 5.850677 49.488961 15.687833-3.707099-0.428465-7.554515-0.71035-11.405688-0.71035C592.118597 353.719934 541.91678 403.781435 541.91678 465.680848L541.91678 465.680848zM541.91678 465.680848M871.375051 249.605443l-73.024469 72.8829c-4.993747 4.988736-11.267878 8.411445-17.970474 10.124052-2.995497 0.714108-5.98974 1.142573-9.128059 1.142573-3.848668 0-7.699842-0.571287-11.266625-1.712607l-3.278634 3.279887c19.679323 27.52825 30.517483 61.043736 30.517483 95.133013 0 90.848363-73.877641 164.868825-164.585687 164.868825-91.135259-0.142822-165.011647-74.020462-165.011647-164.868825 0-90.710552 74.020462-164.58694 164.868825-164.58694 34.089277 0 67.60351 10.836907 95.130507 30.517483l3.28114-3.278634c-1.999503-6.416953-2.142325-13.264876-0.714108-19.82465 1.571038-6.985734 4.992494-13.549266 10.268126-18.683329l72.881647-72.881647c7.275135-7.273883 16.971975-11.266625 27.238849-11.266625 10.268126 0 19.967472 3.993995 27.240101 11.266625l13.551772 13.550519c7.273883 7.27263 11.26412 16.973228 11.26412 27.240101C882.639171 232.635973 878.648934 242.330307 871.375051 249.605443L871.375051 249.605443zM622.211373 313.787497c-64.319864 0-116.665259 52.20132-116.665259 116.524943 0 64.32237 52.344142 116.664006 116.665259 116.664006 64.32237 0 116.667765-52.340383 116.667765-116.664006C738.877885 366.132891 686.533743 313.787497 622.211373 313.787497L622.211373 313.787497zM622.211373 313.787497"  horiz-adv-x="1314" />

    
    <glyph glyph-name="xinyongqia" unicode="&#59269;" d="M859.382496 31.285066 164.617504 31.285066c-55.904586 0-101.488325 45.583739-101.488325 101.488325L63.129179 635.226608c0 55.904586 45.583739 101.488325 101.488325 101.488325l694.764992 0c55.904586 0 101.488325-45.583739 101.488325-101.488325l0-502.453217C960.870821 76.868806 915.287082 31.285066 859.382496 31.285066zM164.617504 672.55367c-20.641693 0-37.499076-16.685369-37.499076-37.327062l0-502.453217c0-20.641693 16.685369-37.327062 37.499076-37.327062l694.764992 0c20.641693 0 37.499076 16.685369 37.499076 37.327062L896.881572 635.226608c0 20.641693-16.685369 37.327062-37.499076 37.327062L164.617504 672.55367 164.617504 672.55367zM800.55367 480.241895 223.44633 480.241895c-17.717453 0-31.994625 14.449185-31.994625 31.994625 0 17.717453 14.449185 31.994625 31.994625 31.994625l577.279355 0c17.717453 0 31.994625-14.449185 31.994625-31.994625C832.720309 494.519066 818.271124 480.241895 800.55367 480.241895zM319.602217 159.607593l-96.155888 0c-17.717453 0-31.994625 14.277171-31.994625 31.994625 0 17.717453 14.449185 31.994625 31.994625 31.994625l96.155888 0c17.717453 0 31.994625-14.277171 31.994625-31.994625C351.596842 173.884764 337.319671 159.607593 319.602217 159.607593z"  horiz-adv-x="1024" />

    
    <glyph glyph-name="warningo" unicode="&#59445;" d="M560 368C560 341.504 538.624 320 512 320l0 0C485.568 320 464 341.504 464 368l0 224C464 618.56 485.568 640 512 640l0 0c26.624 0 48-21.44 48-48L560 368zM560 176c0 26.496-21.376 48-48 48-26.432 0-48-21.504-48-48S485.568 128 512 128C538.624 128 560 149.504 560 176zM512 832C264.64 832 64 631.36 64 384c0-247.424 200.64-448 448-448 247.488 0 448 200.576 448 448C960 631.36 759.488 832 512 832zM512-0.768c-212.48 0-384.768 172.224-384.768 384.768S299.52 768.768 512 768.768 896.64 596.48 896.64 384 724.48-0.768 512-0.768z"  horiz-adv-x="1024" />

    
    <glyph glyph-name="warning" unicode="&#59446;" d="M512 832C264.64 832 64 631.36 64 384c0-247.424 200.64-448 448-448 247.488 0 448 200.576 448 448C960 631.36 759.488 832 512 832zM512 128c-26.432 0-48 21.504-48 48S485.568 224 512 224c26.624 0 48-21.504 48-48S538.624 128 512 128zM560 368C560 341.44 538.624 320 512 320 485.568 320 464 341.44 464 368l0 224C464 618.56 485.568 640 512 640c26.624 0 48-21.44 48-48L560 368z"  horiz-adv-x="1024" />

    
    <glyph glyph-name="weibiaoti14" unicode="&#58973;" d="M845.6 546.4l-384-384c-14.4-14.4-34.4-17.6-52-10.4-5.6 2.4-11.2 5.6-16 10.4L178.4 377.6c-18.4 18.4-18.4 49.6 0 68 18.4 18.4 49.6 18.4 68 0L428 264l350.4 350.4c18.4 18.4 48.8 18.4 68 0C864.8 595.2 864.8 564.8 845.6 546.4z"  horiz-adv-x="1024" />

    
    <glyph glyph-name="wenjiandocuments4" unicode="&#59198;" d="M219.84256 612.73088c-22.12864 0-40.15104-18.04288-40.15104-40.16128l0-574.5664c0-22.14912 18.0224-40.16128 40.15104-40.16128l403.73248 0c22.15936 0 40.15104 18.01216 40.15104 40.16128L663.72608 488.54016 549.43744 612.73088 219.84256 612.73088zM630.016-1.9968c0-3.54304-2.89792-6.44096-6.44096-6.44096L219.84256-8.43776c-3.54304 0-6.43072 2.89792-6.43072 6.44096l0 574.5664c0 3.54304 2.88768 6.42048 6.43072 6.42048l305.34656 0 0-97.67936c0-9.29792 7.5776-16.83456 16.87552-16.83456l87.95136 0L630.016-1.9968zM558.91968 552.63232l50.10432-54.44608-50.10432 0L558.91968 552.63232zM730.03008 810.14784 400.41472 810.14784c-22.12864 0-40.1408-18.03264-40.1408-40.16128l0-116.91008 33.72032 0L393.99424 769.98656c0 3.55328 2.87744 6.42048 6.42048 6.42048l305.34656 0 0-97.66912c0-9.29792 7.5776-16.83456 16.86528-16.83456l87.95136 0 0-466.4832c0-3.55328-2.89792-6.4512-6.43072-6.4512l-95.35488 0 0-33.72032 95.35488 0c22.14912 0 40.15104 18.01216 40.15104 40.17152L844.29824 685.96736 730.03008 810.14784zM739.49184 695.61344l0 54.43584 50.10432-54.43584L739.49184 695.61344z"  horiz-adv-x="1024" />

    
    <glyph glyph-name="wenjianjiafolder78" unicode="&#59201;" d="M208.3328 629.61664l-0.1024 96.03072c-0.03072 4.59776 1.77152 9.0112 5.00736 12.27776 3.24608 3.25632 7.64928 5.08928 12.24704 5.08928l134.61504 0c7.168 0 13.568-4.42368 16.128-11.12064l24.53504-64.4096 330.752 0c20.8896 0 37.86752-16.98816 37.86752-37.86752l0-60.49792 1.31072 0c13.58848 0 24.576-11.008 24.576-24.576l0-135.30112c-39.5776-4.7104-74.22976-28.6208-92.53888-64.8192-4.44416-8.76544-8.84736-16.87552-13.24032-24.30976-20.23424 37.64224-59.98592 63.2832-105.6256 63.2832L292.7616 383.39584c-3.03104 0-5.98016-0.3584-8.8576-0.89088l0 20.36736-1.9968 0L281.9072 544.54272c0 13.57824 10.99776 24.576 24.576 24.576l428.3904 0 0 60.49792c0 1.8432-1.49504 3.33824-3.33824 3.33824L388.89472 632.95488c-7.168 0-13.58848 4.42368-16.128 11.12064l-24.54528 64.4096L242.61632 708.48512l0.23552-78.76608 0-226.84672-34.52928 0L208.32256 629.61664zM892.33408 244.0704c-37.33504-73.73824-121.47712-197.55008-265.50272-198.144l-330.91584-0.31744c-4.74112 0-9.25696 1.88416-12.60544 5.2224-3.33824 3.33824-5.2224 7.8848-5.2224 12.5952l0.04096 265.45152c0 9.84064 7.97696 17.82784 17.8176 17.82784l291.1232 0c49.152 0 89.11872-39.97696 89.11872-89.11872 0-4.93568-0.38912-9.80992-1.1776-14.592 19.7632 16.30208 38.88128 43.1616 58.33728 81.58208 15.24736 30.1568 45.73184 48.88576 79.54432 48.88576 13.86496 0 27.78112-3.328 40.22272-9.63584 21.21728-10.74176 37.00736-29.11232 44.42112-51.74272C904.93952 289.46432 903.08608 265.30816 892.33408 244.0704zM863.65184 300.97408c-4.4544 13.57824-13.90592 24.59648-26.66496 31.03744-7.59808 3.85024-15.69792 5.80608-24.10496 5.80608-20.29568 0-38.58432-11.24352-47.73888-29.3376-25.856-51.05664-63.37536-110.52032-124.55936-119.35744-0.19456-0.03072-0.38912-0.07168-0.59392-0.1024-0.31744-0.04096-0.63488-0.13312-0.95232-0.17408-0.21504-0.03072-0.43008 0.03072-0.64512 0.01024-0.55296-0.04096-1.0752-0.16384-1.6384-0.16384L430.61248 188.69248c-9.84064 0-17.82784 7.9872-17.82784 17.82784s7.9872 17.8176 17.82784 17.8176l197.96992 0c7.61856 9.46176 11.96032 20.96128 11.96032 33.24928 0 29.48096-23.99232 53.47328-53.48352 53.47328L313.76384 311.06048l-0.03072-229.76512 313.01632 0.27648c124.98944 0.52224 200.13056 112.128 233.78944 178.60608C866.99008 272.91648 868.08576 287.40608 863.65184 300.97408zM111.75936 366.1824l144.59904 0L256.3584 24.9856 111.75936 24.9856 111.75936 366.1824zM156.33408 300.16512c0-15.31904 12.42112-27.72992 27.72992-27.72992 15.31904 0 27.74016 12.41088 27.74016 27.72992 0 15.31904-12.42112 27.72992-27.74016 27.72992C168.74496 327.89504 156.33408 315.48416 156.33408 300.16512z"  horiz-adv-x="1024" />

    
    <glyph glyph-name="anniubutton4" unicode="&#59082;" d="M121.904762-6.095238m-121.904762 0a2.5 2.5 0 1 0 243.809524 0 2.5 2.5 0 1 0-243.809524 0ZM536.380952 384m-121.904762 0a2.5 2.5 0 1 0 243.809524 0 2.5 2.5 0 1 0-243.809524 0ZM536.380952 774.095238m-121.904762 0a2.5 2.5 0 1 0 243.809524 0 2.5 2.5 0 1 0-243.809524 0ZM121.904762 774.095238m-121.904762 0a2.5 2.5 0 1 0 243.809524 0 2.5 2.5 0 1 0-243.809524 0ZM121.904762 384m-121.904762 0a2.5 2.5 0 1 0 243.809524 0 2.5 2.5 0 1 0-243.809524 0ZM536.380952-6.095238m-121.904762 0a2.5 2.5 0 1 0 243.809524 0 2.5 2.5 0 1 0-243.809524 0ZM950.857143-6.095238m-121.904762 0a2.5 2.5 0 1 0 243.809524 0 2.5 2.5 0 1 0-243.809524 0ZM950.857143 774.095238m-121.904762 0a2.5 2.5 0 1 0 243.809524 0 2.5 2.5 0 1 0-243.809524 0ZM950.857143 384m-121.904762 0a2.5 2.5 0 1 0 243.809524 0 2.5 2.5 0 1 0-243.809524 0Z"  horiz-adv-x="1073" />

    
    <glyph glyph-name="171" unicode="&#58896;" d="M512-128c-6.4 0-6.4 0-12.8 0-38.4 12.8-76.8 25.6-108.8 38.4-153.6 51.2-320 108.8-320 320L70.4 723.2c0 19.2 12.8 32 32 32 256 0 390.4 134.4 390.4 134.4C492.8 889.6 505.6 896 512 896c0 0 0 0 0 0 6.4 0 19.2-6.4 25.6-12.8 0 0 134.4-134.4 390.4-134.4 19.2 0 32-12.8 32-32l0-486.4c0-211.2-172.8-268.8-320-320-38.4-12.8-76.8-25.6-108.8-38.4C518.4-128 518.4-128 512-128zM128 691.2l0-454.4c0-166.4 128-211.2 275.2-262.4C441.6-38.4 480-44.8 512-64c32 12.8 70.4 25.6 102.4 38.4 147.2 51.2 275.2 89.6 275.2 262.4L889.6 691.2c-204.8 6.4-332.8 89.6-384 134.4C460.8 780.8 332.8 697.6 128 691.2zM512 486.4m-83.2 0a1.3 1.3 0 1 0 166.4 0 1.3 1.3 0 1 0-166.4 0ZM563.2 198.4 460.8 198.4 486.4 467.2 537.6 467.2Z"  horiz-adv-x="1024" />

    
    <glyph glyph-name="shanchuchengyuan" unicode="&#58923;" d="M925.031196 17.469905 1015.521987-73.020886C1028.015059-85.513958 1028.015059-105.781208 1015.521987-118.274279 1003.028915-130.767351 982.777661-130.767351 970.28459-118.274279L879.793798-27.783488 789.303007-118.274279C776.809935-130.767351 756.558682-130.767351 744.06561-118.274279 731.572538-105.781208 731.572538-85.513958 744.06561-73.020886L834.556401 17.469905 744.06561 107.9447C731.572538 120.437772 731.572538 140.705022 744.06561 153.198094 756.558682 165.691166 776.809935 165.691166 789.303007 153.198094L879.793798 62.707303 970.28459 153.198094C982.777661 165.691166 1003.028915 165.691166 1015.521987 153.198094 1028.015059 140.705022 1028.015059 120.437772 1015.521987 107.9447L925.031196 17.469905ZM680.9604 228.716395 700.411841 214.01584 672.354417 162.203983 654.246661 170.570023C633.995407 179.879841 620.03068 199.027353 617.407295 221.18216 614.78391 243.304975 623.869781 265.203843 641.369679 278.976615 710.009592 333.027947 735.603593 450.776349 735.603593 512.29793L735.603593 672.180458C735.603593 740.500445 620.382598 832.014996 511.736062 832.014996 404.033305 832.014996 287.66058 739.02879 287.66058 672.180458L287.66058 512.29793C287.66058 449.83257 318.613325 332.532063 385.093744 279.16857 402.385691 265.29982 411.247614 243.464938 408.544247 221.470093 405.840881 199.475248 391.924143 180.407717 371.800859 171.161884L90.810716 38.56896C83.196501 35.065781 64.096977 27.067656 64.096977 1.633617L64.096977-63.279169 671.842537-63.263173 671.842537-127.23218 64.048989-127.23218C28.745263-127.23218 0.111974-98.614887 0.111974-63.279169L0.111974 32.730329C0.111974 68.194017 64.048989 96.68334 64.048989 96.68334L345.039131 229.276263C255.556104 301.09943 223.675576 442.442303 223.675576 512.29793L223.675576 672.180458C223.675576 778.075639 370.457174 896 511.736062 896 652.998953 896 799.588596 778.075639 799.588596 672.180458L799.588596 512.29793C799.588596 435.49993 769.595626 298.476045 680.9604 228.716395Z"  horiz-adv-x="1026" />

    
    <glyph glyph-name="20" unicode="&#59040;" d="M348.908 483.082c0 13.703-14.848 28.55-28.55 28.55-14.848 0-29.123-14.848-29.123-28.55 0-14.848 14.275-29.696 29.123-29.696 13.702 0 28.55 14.848 28.55 29.696v0zM348.908 657.248c0 14.848-14.848 29.123-28.55 29.123-14.848 0-29.123-14.275-29.123-29.123 0-14.848 14.275-29.123 29.123-29.123 13.702-0 28.55 14.275 28.55 29.123v0zM348.908 125.61c0 14.848-14.848 29.124-28.55 29.124-14.848 0-29.123-14.276-29.123-29.124s14.275-29.122 29.123-29.122c13.702 0 28.55 14.274 28.55 29.122v0zM348.908 300.35c0 14.838-14.848 29.686-28.55 29.686-14.848 0-29.123-14.848-29.123-29.686 0-14.284 14.275-29.122 29.123-29.122 13.702 0 28.55 14.838 28.55 29.122v0zM873.701-27.437h-648.706v123.924h-101.645v58.247h101.645v116.493h-101.645v58.808h101.645v123.349h-101.645v58.247h101.645v116.493h-101.645v58.247h101.645v109.064h648.706v-336.914l53.671-53.671c13.712-13.139 13.712-34.833 0-46.825l-31.404-31.978-22.267 22.267v-43.972l0.572-0.574-0.572-0.562-0-330.641zM796.042 425.971l77.66-77.658-0 110.209c-6.284 6.284-14.276 9.139-22.84 9.139-9.138 0-16.566-3.429-22.84-10.274l-31.979-31.417zM541.35 171.291v-99.936h99.936l232.414 231.85v1.135l-99.936 99.936-232.414-232.985z"  horiz-adv-x="1024" />

    
    <glyph glyph-name="jinyong" unicode="&#59336;" d="M733.367225 777.972886C515.807211 900.214998 240.267691 822.930821 118.026602 605.369783-4.214487 387.806699 73.068667 112.324484 290.630728-9.971863c217.562061-122.241089 493.102604-44.957935 615.34267 172.604126C1028.213463 380.194324 950.928263 655.677563 733.367225 777.972886zM332.112492 63.892425C155.372162 163.239084 92.59642 387.088338 191.889867 563.886997c99.347682 176.742377 323.19796 239.517095 499.995595 140.223648 176.741353-99.348706 239.516072-323.200006 140.223648-499.995595C732.761428 27.373697 508.910127-35.402045 332.112492 63.892425zM280.977881 73.819518 367.196545 25.387459 743.022119 694.181505 656.801409 742.669846Z"  horiz-adv-x="1024" />

    
    <glyph glyph-name="danxuankuang" unicode="&#59120;" d="M544 768C314.24 768 128 581.76 128 352 128 122.24 314.24-64 544-64c229.76 0 416 186.24 416 416C960 581.76 773.76 768 544 768zM544 0C349.44 0 192 157.44 192 352 192 546.56 349.44 704 544 704 738.56 704 896 546.56 896 352 896 157.44 738.56 0 544 0z"  horiz-adv-x="1024" />

    
    <glyph glyph-name="danxuankuangxuanzhong" unicode="&#59121;" d="M544 768C314.24 768 128 581.76 128 352 128 122.24 314.24-64 544-64c229.76 0 416 186.24 416 416C960 581.76 773.76 768 544 768zM544 0C349.44 0 192 157.44 192 352 192 546.56 349.44 704 544 704 738.56 704 896 546.56 896 352 896 157.44 738.56 0 544 0zM544 512C455.68 512 384 440.32 384 352 384 263.68 455.68 192 544 192 632.32 192 704 263.68 704 352 704 440.32 632.32 512 544 512z"  horiz-adv-x="1024" />

    
    <glyph glyph-name="yuandianxiao" unicode="&#59223;" d="M480 416m-160 0a2.5 2.5 0 1 0 320 0 2.5 2.5 0 1 0-320 0Z"  horiz-adv-x="1024" />

    
    <glyph glyph-name="chazhaobiaodanliebiao" unicode="&#59242;" d="M96.256 259.968l192 0c17.664 0 32 14.336 32 32s-14.336 32-32 32l-192 0c-17.664 0-32-14.336-32-32S78.592 259.968 96.256 259.968zM1015.04-7.424l-110.208 110.208c34.112 43.52 55.36 97.6 55.36 157.248 0 141.376-114.624 256-256 256s-256-114.624-256-256 114.624-256 256-256c59.648 0 113.728 21.248 157.248 55.36l110.208-110.208c12.032-11.968 31.36-11.968 43.392 0C1027.008-38.784 1027.008-19.456 1015.04-7.424zM841.408 125.952c-0.576-0.512-1.344-0.704-1.856-1.28s-0.768-1.344-1.28-1.856c-34.624-33.792-81.792-54.784-134.08-54.784-106.048 0-192 85.952-192 192s85.952 192 192 192 192-85.952 192-192C896.256 207.744 875.264 160.576 841.408 125.952zM96.256 643.968l576 0c17.664 0 32 14.336 32 32s-14.336 32-32 32l-576 0c-17.664 0-32-14.336-32-32S78.592 643.968 96.256 643.968zM352.256 515.968l-256 0c-17.664 0-32-14.336-32-32s14.336-32 32-32l256 0c17.664 0 32 14.336 32 32S369.92 515.968 352.256 515.968zM352.256 131.968l-256 0c-17.664 0-32-14.336-32-32s14.336-32 32-32l256 0c17.664 0 32 14.336 32 32S369.92 131.968 352.256 131.968z"  horiz-adv-x="1025" />

    
    <glyph glyph-name="xialakuangbiaodan" unicode="&#59300;" d="M896 824 127.68 824c-35.328 0-64-30.784-64-68.928L63.68 479.36c0-38.08 28.672-68.928 64-68.928L896 410.432c35.328 0 64 30.848 64 68.928L960 755.072C960 793.216 931.328 824 896 824zM896 479.36 127.68 479.36 127.68 755.072 896 755.072 896 479.36zM832 686.144 575.808 686.144l128-137.792L832 686.144zM896 341.568 127.68 341.568c-35.328 0-64-30.848-64-68.928l0-275.712c0-38.144 28.672-68.928 64-68.928L896-72c35.328 0 64 30.784 64 68.928L960 272.64C960 310.656 931.328 341.568 896 341.568zM896-3.072 127.68-3.072 127.68 272.64 896 272.64 896-3.072zM832 203.712 575.808 203.712l128-137.792L832 203.712z"  horiz-adv-x="1024" />

    
    <glyph glyph-name="danxuankuangxuanzhong1" unicode="&#59349;" d="M544 768C314.24 768 128 581.76 128 352 128 122.24 314.24-64 544-64c229.76 0 416 186.24 416 416C960 581.76 773.76 768 544 768zM544 0C349.44 0 192 157.44 192 352 192 546.56 349.44 704 544 704 738.56 704 896 546.56 896 352 896 157.44 738.56 0 544 0zM544 512C455.68 512 384 440.32 384 352 384 263.68 455.68 192 544 192 632.32 192 704 263.68 704 352 704 440.32 632.32 512 544 512z"  horiz-adv-x="1024" />

    
    <glyph glyph-name="leimupinleifenleileibie" unicode="&#59385;" d="M320 384 192 384c-70.4 0-128-57.6-128-128l0-128c0-70.4 57.6-128 128-128l128 0c70.4 0 128 57.6 128 128l0 128C448 326.4 390.4 384 320 384zM384 128c0-35.2-28.8-64-64-64L192 64c-35.2 0-64 28.8-64 64l0 128c0 35.2 28.8 64 64 64l128 0c35.2 0 64-28.8 64-64L384 128zM768 832l-128 0C569.6 832 512 774.4 512 704l0-128c0-70.4 57.6-128 128-128l128 0c70.4 0 128 57.6 128 128L896 704C896 774.4 838.4 832 768 832zM832 576c0-35.2-28.8-64-64-64l-128 0C604.8 512 576 540.8 576 576L576 704c0 35.2 28.8 64 64 64l128 0c35.2 0 64-28.8 64-64L832 576zM768 384l-128 0c-70.4 0-128-57.6-128-128l0-128c0-70.4 57.6-128 128-128l128 0c70.4 0 128 57.6 128 128l0 128C896 326.4 838.4 384 768 384zM832 128c0-35.2-28.8-64-64-64l-128 0c-35.2 0-64 28.8-64 64l0 128c0 35.2 28.8 64 64 64l128 0c35.2 0 64-28.8 64-64L832 128zM320 832 192 832C121.6 832 64 774.4 64 704l0-128c0-70.4 57.6-128 128-128l128 0c70.4 0 128 57.6 128 128L448 704C448 774.4 390.4 832 320 832zM384 576c0-35.2-28.8-64-64-64L192 512C156.8 512 128 540.8 128 576L128 704c0 35.2 28.8 64 64 64l128 0c35.2 0 64-28.8 64-64L384 576z"  horiz-adv-x="1024" />

    
    <glyph glyph-name="bianji2" unicode="&#59041;" d="M583.6 851.1 146.8 851.1C90 851.1 44 805 44 748.3l0-719.5C44-28 90-74 146.8-74l719.5 0c56.8 0 102.8 46 102.8 102.8L969.1 517l-51.4 0 0-436.8c0-56.8-46-102.8-102.8-102.8L198.2-22.6c-56.8 0-102.8 46-102.8 102.8L95.4 696.9c0 56.8 46 102.8 102.8 102.8l385.4 0L583.6 851.1 583.6 851.1zM295.68289 226.84657l623.09652 623.09652 36.34494-36.34494-623.09652-623.09652-36.34494 36.34494Z"  horiz-adv-x="1024" />

    
    <glyph glyph-name="biaoti" unicode="&#59083;" d="M116.181404 762.277854 116.181404 454.866575 201.417293 454.866575 201.417293 762.277854 317.598697 762.277854 317.598697 832 0 832 0 762.277854 116.181404 762.277854ZM412.356282 770.200826 412.356282 832 335.263948 832 335.263948 770.200826 412.356282 770.200826ZM335.263948 727.944979 335.263948 454.866575 412.356282 454.866575 412.356282 727.944979 335.263948 727.944979ZM550.003263 727.944979 550.003263 809.815681 472.91093 809.815681 472.91093 727.944979 426.221206 727.944979 426.221206 677.766163 472.91093 677.766163 472.91093 516.66575C472.91093 502.932531 475.263489 491.840483 479.968678 483.389271 484.673868 474.93806 491.098164 468.423682 499.241762 463.845942 507.385359 459.268203 516.795596 456.187078 527.472757 454.602476 538.149917 453.017874 549.4603 452.225585 561.404242 452.225585 569.004932 452.225585 576.786475 452.401649 584.749103 452.753782 592.711731 453.105916 599.950376 453.810173 606.465253 454.866575L606.465253 512.968363C602.845877 512.264095 599.045588 511.735903 595.064275 511.383769 591.082961 511.031635 586.92074 510.855571 582.577488 510.855571 569.547733 510.855571 560.86136 512.968342 556.518108 517.193948 552.174856 521.419553 550.003263 529.870638 550.003263 542.547455L550.003263 677.766163 606.465253 677.766163 606.465253 727.944979 550.003263 727.944979ZM624.673409 832 624.673409 454.866575 701.765741 454.866575 701.765741 832 624.673409 832ZM930.620557 620.720771 805.209786 620.720771C805.571725 626.002778 806.748006 631.988963 808.738662 638.679505 810.729318 645.370047 814.167674 651.708361 819.05383 657.694636 823.939994 663.68091 830.454771 668.698742 838.598368 672.74828 846.741965 676.79782 856.966547 678.822559 869.272429 678.822559 888.09319 678.822559 902.118061 673.892759 911.347469 664.033012 920.576883 654.173266 927.001178 639.735996 930.620557 620.720771L930.620557 620.720771ZM805.209786 573.182943 1007.71289 573.182943C1009.16064 594.310972 1007.350976 614.558363 1002.283853 633.925722 997.216723 653.293082 988.982765 670.54738 977.581728 685.689133 966.180691 700.830887 951.612922 712.89129 933.877978 721.870701 916.143034 730.850114 895.33193 735.339752 871.444045 735.339752 850.089722 735.339752 830.635866 731.642403 813.081888 724.247593 795.527917 716.852783 780.417248 706.729087 767.749427 693.876204 755.081613 681.02332 745.30944 665.793761 738.432627 648.18707 731.555808 630.58038 728.117453 611.565439 728.117453 591.141678 728.117453 570.013649 731.465325 550.64658 738.161171 533.03989 744.857018 515.433199 754.357741 500.291673 766.663622 487.614856 778.969498 474.938038 793.98969 465.166472 811.724634 458.299862 829.459578 451.433253 849.36585 448 871.444045 448 903.29456 448 930.439475 455.042571 952.87961 469.127923 975.319744 483.213276 991.968627 506.629823 1002.826752 539.378267L934.963782 539.378267C932.430221 530.927055 925.55351 522.916131 914.33344 515.345254 903.113376 507.774378 889.721882 503.988996 874.158566 503.988996 852.442304 503.988996 835.793421 509.446988 824.211418 520.363136 812.629414 531.279284 806.295597 548.885711 805.209786 573.182943ZM0 320 1024 320 1024 256 0 256 0 320ZM0 128 1024 128 1024 64 0 64 0 128ZM0-64 768-64 768-128 0-128 0-64Z"  horiz-adv-x="1024" />

    
    <glyph glyph-name="shuzi" unicode="&#59084;" d="M243.2 192C239.542857 218.174566 238.323809 241.157107 238.323809 274.992518L238.323809 598.024938C238.323809 636.329177 239.542857 665.695761 243.2 703.361596 221.257143 700.80798 212.114285 700.169576 181.028572 700.169576L124.952381 700.169576C96.304762 700.169576 82.895238 700.80798 64 704L64 622.922693C86.552381 625.476309 104.228572 626.753117 126.780952 626.753117L156.038095 626.753117 156.038095 274.992518C156.038095 241.795514 154.819048 216.897754 151.161905 192L243.2 192ZM496.693955 195.755501C528.498724 195.755501 548.376705 194.503667 571.733333 192L571.733333 274.621027C555.333999 271.491443 530.486522 269.613692 499.178702 269.613692L360.032834 269.613692C367.487077 293.398533 373.450472 305.91687 388.358957 325.946211 400.782696 342.845966 425.630172 369.134474 447.495951 388.537898 512.09939 444.244499 517.068885 449.251834 530.983472 465.525672 555.333999 494.317848 566.266888 524.361858 566.266888 565.672372 566.266888 651.422983 512.596339 704 425.630172 704 375.935219 704 336.676206 684.596577 311.82873 648.293398 293.441597 621.378973 284.496506 595.716381 277.539212 548.1467L348.602995 537.506113C352.081642 566.298289 355.560289 580.06846 364.00843 595.090465 376.432168 619.501222 398.297948 632.01956 427.121021 632.01956 469.361731 632.01956 495.700056 605.731052 495.700056 563.168704 495.700056 531.246944 481.785469 510.591687 436.066112 471.158924 386.371159 429.222494 371.462673 414.826406 354.06944 395.422983 321.76772 358.493887 299.404992 318.435208 285.987354 272.743276 279.527011 250.210272 276.048364 228.303181 273.066667 192.62592 290.4599 195.129587 298.411092 195.755501 337.173156 195.755501L496.693955 195.755501ZM601.6 319.384616C612.072727 283.692308 619.636364 267.692308 634.181818 250.461536 667.345453 210.461536 713.890912 192 781.963635 192 844.218182 192 893.090912 209.230771 925.090912 241.846157 946.618182 264.615384 960 298.461539 960 331.692308 960 368 951.27273 393.846154 932.07273 416.615384 911.709088 440.615384 890.181818 451.076923 848.87273 457.846154 879.709088 466.461539 892.509088 471.384616 905.309088 481.846154 930.32727 501.538461 945.454547 535.384616 945.454547 572.307692 945.454547 652.307692 882.618182 704 785.454547 704 738.909088 704 701.090912 692.923077 671.418182 670.153846 644.07273 649.230769 630.690909 627.692308 616.145455 582.153846L699.345453 567.384616C706.32727 592.615384 712.145453 603.076923 723.781818 614.769231 737.745453 627.076923 758.690912 633.846154 787.2 633.846154 836.654547 633.846154 864 609.846154 864 567.384616 864 520 829.67273 491.692308 771.490912 491.692308 746.47273 491.692308 733.67273 492.307692 715.054547 494.769231L715.054547 418.461539C734.836365 420.923077 751.709088 421.538461 777.309088 421.538461 802.909088 421.538461 830.254547 415.384616 844.218182 406.769231 865.163635 393.846154 876.8 370.461539 876.8 342.153846 876.8 293.538461 840.145453 262.153846 782.545453 262.153846 754.618182 262.153846 731.345453 270.153846 712.145453 286.153846 697.6 298.461539 692.363635 308.307692 684.8 336.615384L601.6 319.384616ZM64 128 960 128 960 64 64 64 64 128Z"  horiz-adv-x="1024" />

    
    <glyph glyph-name="weixingongnenggengxin" unicode="&#58918;" d="M878.079606 532.772348l0 9.847276c0 51.02921-36.70497 92.210122-87.73418 92.210122L578.172095 634.829745c-30.438243 0-59.981093 10.742668-59.981093 41.180911l0-4.475941c0 51.02921-36.70497 83.258239-87.73418 83.258239L162.77834 754.792954c-51.02921 0-96.686063-32.229029-96.686063-83.258239l0-458.365452 0.895393 0.895393c8.057513-113.696482 100.267635-203.220425 214.858486-206.801996l0 0 590.862115 0c51.02921 0 87.73418 41.180911 87.73418 92.210122L960.442452 441.45762C961.336822 488.905258 933.584758 528.296407 878.079606 532.772348zM102.797247 351.932654 102.797247 671.535739c0 30.438243 29.54285 46.552246 59.981093 46.552246l267.678482 0c30.438243 0 55.505152-16.114003 55.505152-46.552246 0-51.02921 41.180911-73.40994 92.210122-73.40994l212.17333 0c30.438243 0 51.02921-25.066909 51.02921-55.505152l0-8.952906L310.493613 533.667741c-51.02921 0-96.686063-41.180911-96.686063-92.210122l0-2.686179C168.149675 421.762045 128.759549 391.323802 102.797247 351.932654zM139.502217 229.284289c0 76.096119 61.771879 136.972605 136.972605 136.972605l0 42.076304 84.152609-74.305333-84.152609-74.305333 0 52.819996c-46.552246 0-84.152609-37.600363-84.152609-84.152609 0-23.276123 9.847276-44.762483 25.066909-59.981093l-37.600363-37.600363C155.61622 156.769742 139.502217 191.683926 139.502217 229.284289zM297.960159 197.950653l0-52.818973c46.552246 0 84.152609 37.600363 84.152609 84.152609 0 23.276123-9.847276 44.762483-25.066909 59.981093l37.600363 37.600363c25.066909-25.066909 40.285518-59.0857 40.285518-96.686063 0-76.096119-61.771879-136.972605-136.972605-136.972605l0-42.076304-84.152609 74.305333L297.960159 197.950653zM923.737482 99.473805c0-30.438243-20.590967-55.505152-51.02921-55.505152l-462.841394 0c59.981093 39.391149 99.372242 107.429755 99.372242 185.315636 0 122.648364-99.372242 222.020606-221.125213 222.020606-12.533454 0-24.171516-0.895393-36.70497-3.580548 3.580548 26.857694 31.333636 48.343031 59.0857 48.343031l563.109028 0c30.438243 0 51.02921-25.066909 51.02921-55.505152l0-341.088422L923.737482 99.473805z"  horiz-adv-x="1024" />

    
    <glyph glyph-name="jiaojuan" unicode="&#58903;" d="M807.872614 827.808922l0-98.624205-98.624205 0L709.24841 827.808922 314.75159 827.808922l0-98.624205-98.624205 0L216.127386 827.808922l-98.624205 0 0-887.617843 98.624205 0 0 98.624205 98.624205 0 0-98.624205 394.496819 0 0 98.624205 98.624205 0 0-98.624205 98.624205 0L906.496819 827.808922 807.872614 827.808922zM314.75159 137.439488l-98.624205 0 0 98.624205 98.624205 0L314.75159 137.439488zM314.75159 334.687898l-98.624205 0 0 98.624205 98.624205 0L314.75159 334.687898zM314.75159 531.936307l-98.624205 0 0 98.624205 98.624205 0L314.75159 531.936307zM807.872614 137.439488l-98.624205 0 0 98.624205 98.624205 0L807.872614 137.439488zM807.872614 334.687898l-98.624205 0 0 98.624205 98.624205 0L807.872614 334.687898zM807.872614 531.936307l-98.624205 0 0 98.624205 98.624205 0L807.872614 531.936307z"  horiz-adv-x="1024" />

    
    <glyph glyph-name="icon9" unicode="&#58975;" d="M819.478953 294.022733 890.367467 435.798736 741.964532 444.518329 730.626299 503.28271 607.700619 373.958296 682.165588 638.80836 613.496625 618.446613 510.50495 772.56983 407.487691 618.446613 338.868871 638.80836 413.283698 373.958296 290.384623 503.28271 279.045367 444.518329 130.669038 435.798736 201.530946 294.022733 161.311943 252.596228 395.189597 187.679729 349.554234 111.476163 494.050186 143.731798 461.138612 37.641551 511.437182 13.449569 511.437182 11.836839 513.101077 12.642181 514.788509 11.836839 514.788509 13.449569 565.112662 37.641551 532.176528 143.731798 671.456688 111.476163 625.794719 187.679729 859.69898 252.596228Z"  horiz-adv-x="1024" />

    
    <glyph glyph-name="huabuwenjian" unicode="&#59464;" d="M416 0 192 0c-35.392 0-64 28.608-64 64L128 640c0 35.392 28.608 64 64 64l320 0 0-224C512 462.336 526.336 448 544 448L768 448l0-32C768 398.336 782.336 384 800 384S832 398.336 832 416l0 64c0 9.088-3.84 17.152-9.856 22.976-0.832 1.024-257.28 256.768-258.752 257.792C558.656 764.992 551.168 768 543.488 768L192 768C121.344 768 64 710.656 64 640l0-576c0-70.656 57.344-128 128-128l224 0C433.664-64 448-49.664 448-32S433.664 0 416 0zM576 656.896 720.96 512 576 512 576 656.896zM512 288C512 270.336 526.336 256 544 256l384 0c17.664 0 32 14.336 32 32S945.664 320 928 320l-384 0C526.336 320 512 305.664 512 288zM896 192 576 192c-35.392 0-64-28.608-64-64l0-128c0-35.392 28.608-64 64-64l320 0c35.392 0 64 28.608 64 64l0 128C960 163.392 931.392 192 896 192z"  horiz-adv-x="1024" />

    
    </font>
</defs>
</svg>
